<?xml version="1.0" encoding="UTF-8"?>
<!DOCTYPE svg PUBLIC "-//W3C//DTD SVG 1.1//EN" "http://www.w3.org/Graphics/SVG/1.1/DTD/svg11.dtd">
<!-- Creator: CorelDRAW -->
<svg xmlns="http://www.w3.org/2000/svg" xml:space="preserve" width="150mm" height="39.818mm" version="1.1" style="shape-rendering:geometricPrecision; text-rendering:geometricPrecision; image-rendering:optimizeQuality; fill-rule:evenodd; clip-rule:evenodd"
viewBox="0 0 14998.94 3981.52"
 xmlns:xlink="http://www.w3.org/1999/xlink"
 xmlns:xodm="http://www.corel.com/coreldraw/odm/2003">
 <defs>
  <style type="text/css">
   <![CDATA[
    .fil4 {fill:#ED3237}
    .fil2 {fill:#FEFEFE;fill-rule:nonzero}
    .fil0 {fill:#373435;fill-rule:nonzero}
    .fil3 {fill:url(#id0)}
    .fil1 {fill:url(#id1)}
   ]]>
  </style>
  <linearGradient id="id0" gradientUnits="userSpaceOnUse" x1="8061.61" y1="1978.56" x2="8533.44" y2="572.11">
   <stop offset="0" style="stop-opacity:1; stop-color:#294E6F"/>
   <stop offset="0.54902" style="stop-opacity:1; stop-color:#408BAC"/>
   <stop offset="1" style="stop-opacity:1; stop-color:#58C9E9"/>
  </linearGradient>
  <linearGradient id="id1" gradientUnits="userSpaceOnUse" xlink:href="#id0" x1="8025.21" y1="1986.87" x2="8501.47" y2="565.2">
  </linearGradient>
 </defs>
 <g id="Слой_x0020_1">
  <metadata id="CorelCorpID_0Corel-Layer"/>
  <g id="_1763496506448">
   <path class="fil0" d="M91.99 3442.52l134.57 0 0 429.9 85.83 0 0 -429.9 134.56 0 0 -79.28 -354.96 0 0 79.28zm965.14 175.31c0,-36.37 8.12,-68.02 24.36,-94.92 16.25,-26.92 37.47,-47.77 63.66,-62.56 26.18,-14.79 54.8,-22.19 85.82,-22.19 24.25,0 46.2,3.15 65.84,9.46 19.64,6.3 37.22,14.91 52.74,25.82 15.52,10.91 29.1,23.16 40.74,36.74l0 -101.84c-20.86,-17.94 -43.77,-31.52 -68.75,-40.73 -24.97,-9.22 -56.13,-13.82 -93.46,-13.82 -37.35,0 -72.13,6.42 -104.38,19.27 -32.25,12.85 -60.26,31.04 -84.01,54.56 -23.77,23.52 -42.32,51.41 -55.65,83.65 -13.34,32.25 -20.01,67.77 -20.01,106.56 0,38.31 6.67,73.58 20.01,105.83 13.33,32.25 31.88,60.26 55.65,84.01 23.76,23.77 51.77,41.95 84.01,54.56 32.25,12.61 67.04,18.92 104.38,18.92 37.34,0 68.5,-4.61 93.46,-13.83 24.98,-9.21 47.89,-22.55 68.75,-40.01l0 -102.56c-11.64,14.07 -25.22,26.56 -40.74,37.47 -15.52,10.91 -33.1,19.52 -52.74,25.82 -19.64,6.31 -41.59,9.46 -65.84,9.46 -31.03,0 -59.65,-7.52 -85.82,-22.55 -26.19,-15.04 -47.41,-36.01 -63.66,-62.93 -16.24,-26.91 -24.36,-58.31 -24.36,-94.19zm6284.89 -254.59l-302.6 618.29 79.28 0 301.15 -618.29 -77.83 0zm-6690.72 0l0 509.18 87.28 0 0 -509.18 -87.28 0zm1257.55 509.18l256.76 0 0 -75.65 -256.76 0 0 75.65zm0 -433.53l256.76 0 0 -75.65 -256.76 0 0 75.65zm0 197.85l242.21 0 0 -74.19 -242.21 0 0 74.19zm-53.11 -273.5l0 509.18 84.38 0 0 -509.18 -84.38 0zm651.68 199.31l154.94 262.59 155.67 -262.59 34.91 309.88 88.74 0 -69.83 -534.64 -209.5 345.52 -208.77 -345.52 -69.83 534.64 88.74 0 34.91 -309.88zm924.46 -199.31l-97.47 171.67 -95.28 -171.67 -104.02 0 151.3 244.41 -169.48 264.77 104.01 0 112.75 -195.68 109.1 195.68 104.74 0 -165.12 -264.77 154.21 -244.41 -104.74 0zm381.09 378.25l269.14 0 -16 -72.74 -236.41 0 -16.73 72.74zm133.12 -234.22l81.46 189.12 1.45 21.1 69.11 154.94 97.47 0 -249.49 -537.55 -248.77 537.55 96.74 0 70.56 -159.3 1.46 -18.92 80.01 -186.94zm483.66 131.66l363.69 0 0 -79.29 -363.69 0 0 79.29zm307.69 -275.69l0 509.18 85.83 0 0 -509.18 -85.83 0zm-341.88 0l0 509.18 85.83 0 0 -509.18 -85.83 0zm744.07 378.25l269.13 0 -16 -72.74 -236.4 0 -16.73 72.74zm133.11 -234.22l81.46 189.12 1.46 21.1 69.11 154.94 97.46 0 -249.49 -537.55 -248.77 537.55 96.74 0 70.56 -159.3 1.46 -18.92 80.01 -186.94zm491.67 110.56c0,-36.37 8.12,-68.02 24.36,-94.92 16.25,-26.92 37.47,-47.77 63.66,-62.56 26.18,-14.79 54.8,-22.19 85.82,-22.19 24.25,0 46.2,3.15 65.84,9.46 19.64,6.3 37.22,14.91 52.74,25.82 15.52,10.91 29.1,23.16 40.74,36.74l0 -101.84c-20.86,-17.94 -43.77,-31.52 -68.75,-40.73 -24.97,-9.22 -56.13,-13.82 -93.47,-13.82 -37.34,0 -72.12,6.42 -104.37,19.27 -32.25,12.85 -60.26,31.04 -84.01,54.56 -23.77,23.52 -42.32,51.41 -55.65,83.65 -13.34,32.25 -20.01,67.77 -20.01,106.56 0,38.31 6.67,73.58 20.01,105.83 13.33,32.25 31.88,60.26 55.65,84.01 23.76,23.77 51.77,41.95 84.01,54.56 32.25,12.61 67.04,18.92 104.37,18.92 37.35,0 68.51,-4.61 93.47,-13.83 24.98,-9.21 47.89,-22.55 68.75,-40.01l0 -102.56c-11.64,14.07 -25.22,26.56 -40.74,37.47 -15.52,10.91 -33.1,19.52 -52.74,25.82 -19.64,6.31 -41.59,9.46 -65.84,9.46 -31.03,0 -59.65,-7.52 -85.82,-22.55 -26.19,-15.04 -47.41,-36.01 -63.66,-62.93 -16.24,-26.91 -24.36,-58.31 -24.36,-94.19zm978.28 -254.59l0 509.18 87.28 0 0 -509.18 -87.28 0zm-397.88 0l0 509.18 85.83 0 0 -509.18 -85.83 0zm50.92 268.41l102.56 0c19.88,0 37.1,3.03 51.65,9.09 14.55,6.07 25.94,15.28 34.19,27.65 8.24,12.36 12.36,27.52 12.36,45.46 0,18.43 -4.12,33.83 -12.36,46.2 -8.25,12.36 -19.64,21.58 -34.19,27.64 -14.55,6.06 -31.77,9.09 -51.65,9.09l-102.56 0 0 75.65 102.56 0c37.34,0 69.59,-6.43 96.74,-19.28 27.16,-12.85 48.37,-31.16 63.65,-54.92 15.28,-23.77 22.92,-51.9 22.92,-84.38 0,-32.49 -7.64,-60.5 -22.92,-84.01 -15.28,-23.52 -36.49,-41.71 -63.65,-54.56 -27.16,-12.85 -59.41,-19.27 -96.74,-19.27l-102.56 0 0 75.64zm1297.56 -13.82c0,-36.37 8.12,-68.02 24.36,-94.92 16.25,-26.92 37.47,-47.77 63.66,-62.56 26.18,-14.79 54.8,-22.19 85.82,-22.19 24.25,0 46.2,3.15 65.84,9.46 19.64,6.3 37.22,14.91 52.74,25.82 15.52,10.91 29.1,23.16 40.74,36.74l0 -101.84c-20.86,-17.94 -43.77,-31.52 -68.75,-40.73 -24.97,-9.22 -56.13,-13.82 -93.46,-13.82 -37.35,0 -72.13,6.42 -104.38,19.27 -32.25,12.85 -60.26,31.04 -84.01,54.56 -23.77,23.52 -42.32,51.41 -55.65,83.65 -13.34,32.25 -20.01,67.77 -20.01,106.56 0,38.31 6.67,73.58 20.01,105.83 13.33,32.25 31.88,60.26 55.65,84.01 23.76,23.77 51.77,41.95 84.01,54.56 32.25,12.61 67.04,18.92 104.38,18.92 37.34,0 68.5,-4.61 93.46,-13.83 24.98,-9.21 47.89,-22.55 68.75,-40.01l0 -102.56c-11.64,14.07 -25.22,26.56 -40.74,37.47 -15.52,10.91 -33.1,19.52 -52.74,25.82 -19.64,6.31 -41.59,9.46 -65.84,9.46 -31.03,0 -59.65,-7.52 -85.82,-22.55 -26.19,-15.04 -47.41,-36.01 -63.66,-62.93 -16.24,-26.91 -24.36,-58.31 -24.36,-94.19zm507.65 -175.31l134.57 0 0 429.9 85.83 0 0 -429.9 134.57 0 0 -79.28 -354.97 0 0 79.28zm584.77 175.31c0,-34.92 7.52,-66.08 22.55,-93.47 15.04,-27.4 35.53,-48.86 61.47,-64.38 25.95,-15.52 55.65,-23.28 89.1,-23.28 34.44,0 64.63,7.76 90.56,23.28 25.95,15.52 46.19,36.98 60.74,64.38 14.55,27.4 21.83,58.56 21.83,93.47 0,34.92 -7.4,65.95 -22.19,93.1 -14.79,27.16 -35.16,48.62 -61.11,64.38 -25.94,15.76 -55.89,23.64 -89.83,23.64 -33.46,0 -63.16,-7.88 -89.1,-23.64 -25.94,-15.76 -46.43,-37.22 -61.47,-64.38 -15.03,-27.16 -22.55,-58.19 -22.55,-93.1zm-90.92 0c0,37.83 6.55,72.98 19.64,105.47 13.1,32.49 31.53,60.62 55.29,84.37 23.76,23.77 51.77,42.32 84.01,55.65 32.25,13.34 67.29,20.01 105.1,20.01 38.8,0 74.19,-6.67 106.2,-20.01 32.01,-13.33 59.89,-31.88 83.65,-55.65 23.76,-23.76 42.19,-51.89 55.28,-84.37 13.1,-32.49 19.64,-67.65 19.64,-105.47 0,-38.31 -6.54,-73.46 -19.64,-105.47 -13.09,-32.01 -31.64,-59.77 -55.65,-83.28 -24,-23.53 -52.01,-41.95 -84.01,-55.29 -32,-13.34 -67.16,-20 -105.47,-20 -37.34,0 -72.12,6.66 -104.37,20 -32.25,13.34 -60.38,31.76 -84.38,55.29 -24,23.52 -42.55,51.28 -55.65,83.28 -13.09,32.01 -19.64,67.17 -19.64,105.47zm849.54 -55.29l154.93 262.59 155.67 -262.59 34.92 309.88 88.74 0 -69.84 -534.64 -209.5 345.52 -208.76 -345.52 -69.84 534.64 88.74 0 34.92 -309.88zm743.34 178.95l269.14 0 -16.01 -72.74 -236.4 0 -16.73 72.74zm133.11 -234.22l81.47 189.12 1.45 21.1 69.11 154.94 97.47 0 -249.5 -537.55 -248.76 537.55 96.74 0 70.56 -159.3 1.45 -18.92 80.01 -186.94zm347.64 -64.75l134.57 0 0 429.9 85.83 0 0 -429.9 134.57 0 0 -79.28 -354.97 0 0 79.28zm584.77 175.31c0,-34.92 7.52,-66.08 22.55,-93.47 15.04,-27.4 35.53,-48.86 61.47,-64.38 25.95,-15.52 55.65,-23.28 89.1,-23.28 34.44,0 64.62,7.76 90.56,23.28 25.95,15.52 46.19,36.98 60.74,64.38 14.55,27.4 21.83,58.56 21.83,93.47 0,34.92 -7.4,65.95 -22.19,93.1 -14.79,27.16 -35.16,48.62 -61.11,64.38 -25.94,15.76 -55.89,23.64 -89.83,23.64 -33.46,0 -63.16,-7.88 -89.1,-23.64 -25.94,-15.76 -46.43,-37.22 -61.47,-64.38 -15.03,-27.16 -22.55,-58.19 -22.55,-93.1zm-90.92 0c0,37.83 6.55,72.98 19.64,105.47 13.09,32.49 31.52,60.62 55.29,84.37 23.76,23.77 51.77,42.32 84.01,55.65 32.25,13.34 67.29,20.01 105.1,20.01 38.8,0 74.19,-6.67 106.2,-20.01 32.01,-13.33 59.89,-31.88 83.65,-55.65 23.76,-23.76 42.19,-51.89 55.28,-84.37 13.1,-32.49 19.64,-67.65 19.64,-105.47 0,-38.31 -6.54,-73.46 -19.64,-105.47 -13.09,-32.01 -31.64,-59.77 -55.65,-83.28 -24,-23.53 -52.01,-41.95 -84.01,-55.29 -32,-13.34 -67.17,-20 -105.47,-20 -37.34,0 -72.13,6.66 -104.37,20 -32.26,13.34 -60.38,31.76 -84.38,55.29 -24,23.52 -42.56,51.28 -55.65,83.28 -13.09,32.01 -19.64,67.17 -19.64,105.47zm1151.41 -254.59l-374.61 0 0 312.06c0,17.94 -1.57,34.43 -4.72,49.46 -3.16,15.04 -7.76,28.13 -13.83,39.29 -6.06,11.15 -13.45,19.76 -22.18,25.82 -8.73,6.06 -18.92,9.09 -30.56,9.09l0 73.47c35.41,0 64.62,-8.01 87.65,-24.01 23.04,-16 40.13,-38.43 51.29,-67.29 11.15,-28.85 16.73,-62.19 16.73,-100.01l0 -238.59 202.94 0 0 429.9 87.29 0 0 -509.18zm318.54 254.59c0,-34.92 7.52,-66.08 22.55,-93.47 15.04,-27.4 35.52,-48.86 61.47,-64.38 25.95,-15.52 55.65,-23.28 89.1,-23.28 34.43,0 64.62,7.76 90.56,23.28 25.95,15.52 46.19,36.98 60.74,64.38 14.55,27.4 21.83,58.56 21.83,93.47 0,34.92 -7.4,65.95 -22.19,93.1 -14.79,27.16 -35.16,48.62 -61.11,64.38 -25.94,15.76 -55.89,23.64 -89.83,23.64 -33.46,0 -63.16,-7.88 -89.1,-23.64 -25.95,-15.76 -46.43,-37.22 -61.47,-64.38 -15.03,-27.16 -22.55,-58.19 -22.55,-93.1zm-90.92 0c0,37.83 6.55,72.98 19.64,105.47 13.09,32.49 31.52,60.62 55.29,84.37 23.76,23.77 51.77,42.32 84.01,55.65 32.25,13.34 67.29,20.01 105.1,20.01 38.8,0 74.19,-6.67 106.2,-20.01 32.01,-13.33 59.89,-31.88 83.65,-55.65 23.76,-23.76 42.19,-51.89 55.28,-84.37 13.1,-32.49 19.64,-67.65 19.64,-105.47 0,-38.31 -6.54,-73.46 -19.64,-105.47 -13.09,-32.01 -31.64,-59.77 -55.65,-83.28 -24,-23.53 -52.01,-41.95 -84.01,-55.29 -32.01,-13.34 -67.17,-20 -105.47,-20 -37.34,0 -72.13,6.66 -104.38,20 -32.25,13.34 -60.37,31.76 -84.37,55.29 -24.01,23.52 -42.56,51.28 -55.65,83.28 -13.09,32.01 -19.64,67.17 -19.64,105.47zm756.44 -254.59l0 509.18 86.55 0 0 -429.9 185.49 0 0 -79.28 -272.04 0zm930.27 92.38l3.64 -117.84 -452.45 441.53 -3.63 118.57 452.44 -442.26zm-368.06 -92.38l-84.37 0 0 534.64 84.37 -96.74 0 -437.9zm371.7 -25.46l-84.38 98.2 0 436.44 84.38 0 0 -534.64zm469.84 291.69l-93.1 0 -172.4 242.95 103.29 0 162.21 -242.95zm105.47 -266.23l-86.56 0 0 509.18 86.56 0 0 -509.18zm-51.65 74.19l0 -74.19 -106.2 0c-36.37,0 -68.38,6.55 -96.01,19.64 -27.64,13.1 -48.98,31.4 -64.02,54.93 -15.03,23.52 -22.55,51.28 -22.55,83.28 0,32.01 7.52,59.89 22.55,83.65 15.04,23.76 36.38,42.19 64.02,55.28 27.64,13.1 59.65,19.64 96.01,19.64l106.2 0 0 -71.28 -102.56 0c-19.4,0 -36.49,-3.27 -51.28,-9.82 -14.8,-6.54 -26.31,-16.24 -34.56,-29.1 -8.24,-12.85 -12.36,-28.25 -12.36,-46.19 0,-18.43 4.12,-33.95 12.36,-46.56 8.25,-12.6 19.76,-22.3 34.56,-29.09 14.79,-6.79 31.88,-10.19 51.28,-10.19l102.56 0z"/>
   <g>
    <path class="fil0" d="M835.58 2130l108.89 362.29 343.46 0 -437.69 -1411.49 -418.84 0 -431.4 1411.49 330.89 0 100.51 -362.29 404.18 0zm-358.1 -238.74l83.76 -299.47c23.04,-81.67 43.98,-188.48 64.92,-272.25l4.19 0c20.95,83.77 46.08,188.48 71.2,272.25l87.95 299.47 -312.03 0zm1031.79 601.04l316.22 0 0 -557.06 96.33 0c129.84,2.09 190.58,50.26 228.26,226.87 41.89,174.52 75.39,287.95 98.43,330.19l326.69 0c-27.23,-54.81 -71.19,-239.79 -115.17,-399.64 -35.61,-130.19 -90.05,-224.43 -188.48,-264.22l0 -6.29c121.46,-43.98 249.2,-167.18 249.2,-346.59 0,-129.14 -46.07,-227.22 -129.84,-294.23 -100.52,-79.58 -247.11,-110.99 -456.53,-110.99 -169.64,0 -322.51,12.56 -425.12,29.32l0 1392.64zm316.22 -1175.2c23.04,-3.84 67.02,-10.12 144.5,-10.12 146.59,2.09 234.55,66.67 234.55,195.81 0,122.86 -94.24,202.09 -253.4,202.09l-125.65 0 0 -387.77zm2794.45 812.9l108.89 362.29 343.45 0 -437.69 -1411.49 -418.83 0 -431.41 1411.49 330.89 0 100.52 -362.29 404.18 0zm-358.11 -238.74l83.77 -299.47c23.03,-81.67 43.98,-188.48 64.92,-272.25l4.19 0c20.94,83.77 46.07,188.48 71.2,272.25l87.94 299.47 -312.03 0zm1324.98 601.04l0 -425.13c0,-230.35 -4.19,-429.31 -12.57,-615.69l6.29 -2.1c69.11,165.45 161.25,347.64 245.02,498.42l301.56 544.49 335.07 0 0 -1411.49 -293.19 0 0 410.46c0,213.6 6.29,404.18 27.23,590.56l-6.28 0c-62.83,-159.15 -146.6,-335.07 -230.36,-483.76l-293.19 -517.26 -372.76 0 0 1411.49 293.19 0zm-2823.76 0l881.65 0 0 -268.06 -561.24 0 0 -1143.43 -320.41 0 0 1411.49z"/>
    <path class="fil0" d="M12009.73 2477.62l312.04 0 -77.48 -1411.48 -416.74 0 -150.78 469.1c-46.08,157.06 -94.24,343.45 -134.03,506.79l-6.28 0c-31.41,-165.45 -75.39,-343.45 -119.37,-504.7l-138.22 -471.19 -425.12 0 -90.04 1411.48 295.28 0 25.13 -536.11c10.48,-175.91 16.75,-393.71 25.13,-584.28l4.19 0c33.51,184.29 81.67,385.33 127.75,552.87l150.78 544.49 249.2 0 171.73 -550.78c54.46,-165.44 113.09,-366.48 157.07,-546.58l6.28 0c0,205.23 6.28,410.46 12.56,580.09l20.94 540.3zm1429.69 -856.52l-519.35 0 0 -293.19 550.77 0 0 -261.77 -871.19 0 0 1411.48 900.5 0 0 -261.77 -580.08 0 0 -335.07 519.35 0 0 -259.68zm311.38 850.24c79.57,10.48 196.86,20.95 362.29,20.95 276.44,0 502.6,-58.65 651.29,-182.21 136.12,-115.17 234.55,-301.56 234.55,-571.71 0,-249.21 -92.15,-423.03 -238.74,-531.92 -136.12,-102.62 -309.94,-150.78 -578,-150.78 -161.25,0 -314.13,10.47 -431.4,29.32l0 1386.35zm320.42 -1158.09c27.22,-6.28 73.29,-12.56 144.49,-12.56 274.34,0 446.07,154.96 443.98,448.15 0,337.17 -188.48,496.32 -477.49,494.24 -39.78,0 -83.76,0 -110.98,-6.28l0 -923.54z"/>
    <path class="fil1" d="M10315.55 1407.4c17.83,-7.11 42.74,-94.57 45.74,-118.71 5.63,-45.24 -11.41,-106.59 -23.67,-142.04 -11.13,-32.24 -24.59,-52.87 -41.95,-81.1l-70.84 -93.6c-29.71,-34.69 -51.96,-53.06 -83.28,-83.54 -13.52,-13.16 -32.7,-27.57 -47.65,-41.34 -67.85,-62.4 -195.09,-132.19 -283.78,-165.31 2.99,20.78 104.97,89.91 125.71,108.59 30.83,26.91 66.19,56.78 86.44,92.11 11.02,19.23 30.05,39.51 39.11,77.53l13.04 45.77c3.99,27.39 5.38,87.71 -0.59,113.16 -9.98,42.51 -11.92,53.21 -30.6,87.98 -30.23,56.29 -57.41,76.82 -106.07,111.54 -10.74,6.25 -57.47,29.1 -63.38,35.69 -51.32,17.37 -97.19,33.01 -150.57,45.24 -36.05,7.18 -68.91,11.8 -104.61,17.23 -39.98,6.08 -110.05,12.25 -147.17,12.78 -52.52,0.76 -101.87,6.22 -155.77,4.17 -0.33,-14.96 2.54,-35.58 4.54,-50.9 17.07,-83.78 37.69,-159.67 55.24,-241.1 13.22,-61.29 27.67,-122.21 37.74,-184.22 12.41,-14.83 28.97,-213.75 30.86,-239.27 3.43,-34.2 5.74,-73.66 0.96,-109.41 -8.25,-61.72 -10.75,-91.85 -47.56,-146.07 -12.89,-18.98 -39.04,-45.57 -59.7,-56.45 -58.07,-30.57 -81.88,-39.11 -146.58,-47.72 -31.67,-4.22 -118.93,-6.85 -149.54,-1.76 -101.24,16.86 -211.04,23.51 -309.61,53.73 -157.81,39.76 -633.97,204.36 -659.61,200.22 12.2,-38.83 287.67,-159.91 335.19,-182.28 21.51,-10.26 30.83,-10.1 1.15,-37.16 -27.25,-24.86 -63.62,-50.73 -80.16,-66.22l-106.76 -64.44c-49.05,-28.7 -100.43,-50.52 -152.56,-73.46 -52.09,-22.39 -113.87,-44.04 -169.66,-56.37l-77.83 -13.12c-85.41,-1.69 -108.28,0.83 -157.75,44.95 -27.14,28.22 -47.91,62.42 -59.81,99.94 -14.43,45.47 -34.45,99.55 -35.86,149.02 -10.24,17.07 -11.72,136.07 -14.17,157.13 -11.64,99.86 5.35,264.99 1.23,376.44 -20.46,-1.62 -30.28,-11.73 -49.13,-14.36 -47.5,-16.32 -231.64,-94.25 -265.8,-95.08 20.89,23.18 61.87,44.96 88.53,61.77 16.77,10.57 29.29,19.93 44.56,28.36l47.22 28.5c58.11,36.52 123.32,74.34 186.55,110.58 81.21,46.56 163.38,82.52 248.25,121.65l130.28 55.27c116.37,40 236.66,88.57 354.09,129.97 83.31,28.35 170.05,56.45 254.94,78.9 68.63,18.14 138.1,35.19 206.42,53.8 21.24,5.79 101.25,23.84 121.73,25.94 43.03,19.55 329.13,57.28 361.12,62.09 39.19,9.99 100.34,7.7 142.88,14.09l174.66 6.62c160.11,3.62 267.81,-4.41 416.57,-33.87 56.35,-13.75 149.03,-39 195.84,-75.8 16.31,-4.66 46.15,-31.88 57.92,-42.27 8.24,-7.27 41.87,-43.76 43.52,-53.79z"/>
    <g>
     <path class="fil2" d="M10354.75 1287.92l12.96 1.62 0 0 -0.36 2.63 -0.5 2.95 -0.61 3.22 -0.72 3.49 -0.82 3.75 -0.92 3.97 -1.02 4.19 -1.12 4.36 -1.19 4.53 -1.28 4.65 -1.34 4.77 -1.43 4.85 -1.49 4.9 -1.55 4.94 -1.61 4.93 -1.65 4.93 -1.7 4.87 -1.74 4.81 -1.79 4.71 -1.81 4.59 -1.84 4.44 -1.87 4.29 -1.88 4.08 -1.92 3.89 -1.93 3.63 -1.96 3.39 -1.99 3.13 -2.05 2.85 -2.12 2.56 -2.26 2.25 -2.49 1.93 -2.85 1.5 -4.84 -12.14 0.53 -0.3 0.97 -0.75 1.26 -1.27 1.44 -1.74 1.57 -2.19 1.65 -2.59 1.7 -2.95 1.73 -3.27 1.76 -3.55 1.76 -3.82 1.77 -4.03 1.74 -4.24 1.75 -4.41 1.71 -4.53 1.68 -4.65 1.66 -4.73 1.61 -4.79 1.57 -4.81 1.51 -4.82 1.45 -4.78 1.39 -4.73 1.32 -4.65 1.24 -4.55 1.17 -4.41 1.08 -4.24 0.98 -4.05 0.9 -3.83 0.78 -3.59 0.68 -3.31 0.57 -3 0.44 -2.63 0.32 -2.25 0 0zm0 0c0.44,-3.57 3.72,-6.11 7.29,-5.67 3.57,0.44 6.11,3.72 5.67,7.29l-12.96 -1.62zm-23.37 -139.11l12.36 -4.26 0 0 1.17 3.43 1.2 3.59 1.22 3.72 1.23 3.86 1.24 3.97 1.24 4.09 1.23 4.2 1.24 4.29 1.21 4.39 1.21 4.47 1.18 4.54 1.16 4.63 1.11 4.68 1.09 4.73 1.04 4.79 1 4.83 0.94 4.85 0.89 4.89 0.81 4.91 0.75 4.9 0.69 4.92 0.6 4.92 0.52 4.9 0.43 4.88 0.34 4.86 0.24 4.84 0.12 4.78 0.02 4.74 -0.09 4.7 -0.22 4.64 -0.35 4.56 -0.49 4.5 -12.96 -1.62 0.43 -4.08 0.33 -4.18 0.2 -4.26 0.09 -4.36 -0.02 -4.44 -0.12 -4.5 -0.22 -4.54 -0.32 -4.62 -0.41 -4.64 -0.5 -4.68 -0.58 -4.7 -0.65 -4.72 -0.73 -4.74 -0.79 -4.73 -0.85 -4.71 -0.92 -4.71 -0.96 -4.67 -1.02 -4.65 -1.05 -4.61 -1.09 -4.56 -1.12 -4.49 -1.16 -4.44 -1.17 -4.37 -1.19 -4.29 -1.2 -4.19 -1.21 -4.1 -1.22 -3.99 -1.2 -3.89 -1.21 -3.76 -1.18 -3.64 -1.18 -3.49 -1.15 -3.37 0 0zm0 0c-1.17,-3.41 0.64,-7.14 4.05,-8.31 3.41,-1.17 7.14,0.64 8.31,4.05l-12.36 4.26zm-40.98 -79.28l10.42 -7.88 0.36 0.52 3.2 5.2 3.12 5.06 1.54 2.49 1.5 2.47 1.5 2.44 1.47 2.43 1.46 2.42 1.44 2.41 1.42 2.4 1.39 2.39 1.39 2.4 1.36 2.4 1.35 2.41 1.34 2.42 1.31 2.45 1.31 2.46 1.27 2.48 1.26 2.48 1.26 2.54 1.22 2.57 1.22 2.59 1.2 2.64 1.18 2.68 1.17 2.72 1.15 2.77 1.14 2.82 1.11 2.87 1.1 2.92 1.1 2.99 1.08 3.07 -12.36 4.26 -1.02 -2.91 -1.04 -2.85 -1.06 -2.8 -1.07 -2.75 -1.08 -2.68 -1.09 -2.63 -1.11 -2.6 -1.12 -2.54 -1.14 -2.5 -1.16 -2.47 -1.18 -2.45 -1.18 -2.4 -1.22 -2.4 -1.23 -2.38 -1.23 -2.36 -1.27 -2.33 -1.28 -2.34 -1.31 -2.33 -1.32 -2.32 -1.35 -2.34 -1.37 -2.33 -1.38 -2.36 -1.4 -2.35 -1.44 -2.38 -1.45 -2.39 -1.48 -2.42 -1.5 -2.45 -1.52 -2.47 -3.12 -5.06 -3.22 -5.22 0.36 0.52zm-0.36 -0.52c-1.88,-3.07 -0.92,-7.11 2.15,-8.99 3.07,-1.88 7.11,-0.92 8.99,2.15l-11.14 6.84zm-60.07 -100.96l70.84 93.6 -10.42 7.88 -70.84 -93.6 10.17 -8.19 0.25 0.31zm-10.42 7.88c-2.17,-2.87 -1.6,-6.98 1.27,-9.15 2.87,-2.17 6.98,-1.6 9.15,1.27l-10.42 7.88zm-82.63 -82.8l9.12 -9.36 0 0 2.89 2.8 2.85 2.75 2.8 2.69 2.75 2.62 5.41 5.13 5.27 4.98 5.16 4.86 5.08 4.79 2.52 2.39 2.51 2.38 2.49 2.4 2.5 2.39 2.49 2.42 2.49 2.43 2.49 2.46 2.5 2.48 2.5 2.52 2.53 2.56 2.53 2.61 2.56 2.66 2.56 2.71 2.6 2.77 2.62 2.84 2.65 2.9 2.69 2.99 2.7 3.06 2.76 3.15 2.79 3.24 -9.92 8.5 -2.73 -3.18 -2.7 -3.07 -2.66 -3 -2.61 -2.91 -2.59 -2.84 -2.56 -2.78 -2.54 -2.71 -2.52 -2.65 -2.5 -2.6 -2.47 -2.55 -2.47 -2.5 -2.46 -2.48 -2.46 -2.44 -2.45 -2.42 -2.45 -2.39 -2.45 -2.38 -2.46 -2.37 -2.47 -2.36 -2.49 -2.36 -2.5 -2.37 -5.06 -4.79 -5.16 -4.86 -5.29 -4.98 -5.43 -5.15 -2.79 -2.66 -2.82 -2.71 -2.87 -2.77 -2.93 -2.84 0 0zm0 0c-2.58,-2.51 -2.63,-6.66 -0.12,-9.24 2.51,-2.58 6.66,-2.63 9.24,-0.12l-9.12 9.36zm-47.51 -41.21l8.84 -9.62 0.01 0.01 1.37 1.25 1.41 1.28 1.44 1.27 1.43 1.27 1.48 1.28 1.5 1.31 1.5 1.29 1.51 1.28 3.09 2.61 3.11 2.61 3.14 2.61 3.14 2.63 3.13 2.61 3.1 2.61 1.54 1.3 1.54 1.31 1.54 1.32 1.48 1.3 1.5 1.29 1.47 1.31 1.45 1.29 1.43 1.29 1.41 1.29 1.37 1.28 1.37 1.28 1.33 1.29 -9.12 9.36 -1.23 -1.19 -1.27 -1.2 -1.31 -1.22 -1.35 -1.23 -1.35 -1.23 -1.41 -1.25 -1.41 -1.25 -1.44 -1.25 -1.48 -1.28 -1.46 -1.26 -1.5 -1.27 -1.52 -1.28 -3.08 -2.59 -3.11 -2.61 -3.14 -2.61 -3.14 -2.63 -3.15 -2.63 -3.11 -2.63 -1.57 -1.34 -1.54 -1.33 -1.52 -1.31 -1.52 -1.32 -1.51 -1.33 -1.48 -1.33 -1.47 -1.32 -1.45 -1.33 0.01 0.01zm-0.01 -0.01c-2.65,-2.44 -2.81,-6.58 -0.37,-9.23 2.44,-2.65 6.58,-2.81 9.23,-0.37l-8.86 9.6zm-272.87 -171.04l-12.94 1.86 8.76 -7.05 8.5 3.24 8.71 3.45 8.89 3.65 9.07 3.83 9.21 4.02 9.34 4.19 9.46 4.36 9.57 4.52 9.64 4.66 9.71 4.81 9.74 4.95 9.78 5.06 9.8 5.19 9.78 5.3 9.75 5.4 9.71 5.5 9.66 5.58 9.58 5.66 9.48 5.74 9.37 5.79 9.24 5.86 9.08 5.9 8.92 5.93 8.74 5.98 8.54 6 8.32 6.01 8.07 6.03 7.84 6.03 7.55 6.02 7.27 6.01 6.97 5.99 6.63 5.97 -8.84 9.62 -6.43 -5.77 -6.75 -5.83 -7.09 -5.85 -7.37 -5.88 -7.66 -5.89 -7.93 -5.91 -8.16 -5.91 -8.4 -5.9 -8.6 -5.88 -8.8 -5.85 -8.96 -5.82 -9.12 -5.78 -9.25 -5.73 -9.36 -5.66 -9.48 -5.6 -9.54 -5.52 -9.61 -5.44 -9.65 -5.34 -9.68 -5.24 -9.68 -5.13 -9.68 -5.02 -9.64 -4.89 -9.59 -4.75 -9.54 -4.62 -9.45 -4.46 -9.34 -4.3 -9.24 -4.15 -9.07 -3.96 -8.93 -3.77 -8.75 -3.59 -8.57 -3.39 -8.34 -3.18 8.76 -7.05zm-8.76 7.05c-3.37,-1.26 -5.09,-5.04 -3.83,-8.41 1.26,-3.37 5.04,-5.09 8.41,-3.83l-4.58 12.24zm132.27 97.55l-8.58 9.84 -0.08 -0.07 -2.04 -1.77 -2.52 -2.09 -2.95 -2.37 -3.37 -2.65 -3.71 -2.87 -4.04 -3.08 -4.32 -3.28 -4.58 -3.45 -9.77 -7.35 -10.37 -7.82 -5.33 -4.04 -5.37 -4.11 -5.4 -4.15 -5.39 -4.18 -5.33 -4.2 -5.26 -4.17 -5.14 -4.17 -5 -4.11 -4.83 -4.06 -4.61 -3.98 -4.38 -3.89 -4.12 -3.79 -3.81 -3.68 -3.49 -3.54 -3.14 -3.42 -2.77 -3.3 -2.38 -3.19 -1.95 -3.14 -1.51 -3.2 -0.92 -3.47 12.94 -1.86 0.2 0.71 0.73 1.5 1.29 2.06 1.84 2.47 2.33 2.78 2.8 3.04 3.21 3.26 3.59 3.46 3.92 3.61 4.22 3.75 4.49 3.88 4.71 3.96 4.9 4.03 5.06 4.09 5.18 4.13 5.27 4.14 5.33 4.14 5.36 4.11 5.35 4.09 5.29 4.02 10.35 7.8 9.77 7.35 4.6 3.47 4.36 3.3 4.08 3.12 3.79 2.93 3.45 2.71 3.09 2.49 2.72 2.25 2.32 2.03 -0.08 -0.07zm0.08 0.07c2.67,2.41 2.89,6.55 0.48,9.22 -2.41,2.67 -6.55,2.89 -9.22,0.48l8.74 -9.7zm87.75 93.71l-11.34 6.5 0 0 -1.86 -3.17 -1.95 -3.13 -2.04 -3.13 -2.1 -3.08 -2.19 -3.07 -2.25 -3.05 -2.33 -3.02 -2.39 -3 -2.47 -2.99 -2.51 -2.95 -2.56 -2.93 -2.62 -2.9 -2.68 -2.9 -2.71 -2.86 -2.76 -2.85 -2.78 -2.82 -2.84 -2.81 -2.85 -2.78 -2.88 -2.76 -2.92 -2.75 -2.91 -2.72 -2.95 -2.7 -2.96 -2.69 -2.96 -2.66 -2.97 -2.65 -2.97 -2.63 -2.97 -2.62 -2.97 -2.6 -5.9 -5.14 -5.83 -5.09 8.58 -9.84 5.83 5.07 5.92 5.16 2.99 2.62 2.99 2.64 3.01 2.65 3.01 2.69 3 2.7 3 2.73 3.01 2.76 2.99 2.78 2.98 2.81 2.96 2.84 2.93 2.86 2.92 2.89 2.88 2.92 2.86 2.95 2.81 2.98 2.78 3 2.74 3.04 2.7 3.07 2.63 3.11 2.59 3.13 2.53 3.18 2.47 3.2 2.41 3.25 2.33 3.27 2.26 3.32 2.18 3.35 2.11 3.39 2.02 3.43 0 0zm0 0c1.79,3.13 0.71,7.13 -2.42,8.92 -3.13,1.79 -7.13,0.71 -8.92,-2.42l11.34 -6.5zm39.72 78.98l-12.56 3.58 -0.08 -0.28 -0.84 -3.37 -0.89 -3.27 -0.95 -3.18 -0.99 -3.09 -1.03 -3 -1.08 -2.91 -1.11 -2.82 -1.14 -2.75 -1.17 -2.67 -1.21 -2.61 -1.23 -2.54 -1.25 -2.47 -1.27 -2.4 -1.3 -2.36 -1.3 -2.3 -1.32 -2.25 -1.32 -2.2 -1.33 -2.14 -1.34 -2.12 -1.33 -2.08 -1.34 -2.04 -1.33 -2.01 -1.32 -1.99 -1.3 -1.96 -1.31 -1.94 -1.27 -1.93 -1.26 -1.91 -1.24 -1.91 -1.21 -1.89 -1.17 -1.89 -1.15 -1.88 -1.12 -1.91 11.34 -6.5 1 1.71 1.05 1.74 1.11 1.77 1.13 1.79 1.18 1.81 1.24 1.87 1.25 1.89 1.29 1.92 1.32 1.98 1.34 2.01 1.35 2.05 1.38 2.12 1.39 2.16 1.4 2.2 1.41 2.28 1.4 2.34 1.4 2.39 1.4 2.46 1.38 2.52 1.37 2.6 1.35 2.67 1.33 2.74 1.31 2.83 1.29 2.91 1.24 2.99 1.21 3.08 1.16 3.17 1.13 3.26 1.07 3.35 1.03 3.46 0.97 3.55 0.92 3.65 -0.08 -0.28zm0.08 0.28c0.83,3.51 -1.34,7.04 -4.85,7.87 -3.51,0.83 -7.04,-1.34 -7.87,-4.85l12.72 -3.02zm0.41 49.08l-13.05 -45.78 12.56 -3.58 13.05 45.78 0.19 0.85 -12.75 2.73zm12.56 -3.58c0.98,3.46 -1.03,7.09 -4.49,8.07 -3.46,0.98 -7.09,-1.03 -8.07,-4.49l12.56 -3.58zm-0.52 116.44l-12.72 -2.98 0 0 0.49 -2.28 0.46 -2.5 0.44 -2.7 0.39 -2.9 0.37 -3.07 0.31 -3.22 0.3 -3.36 0.25 -3.49 0.23 -3.6 0.18 -3.69 0.15 -3.79 0.12 -3.85 0.09 -3.92 0.06 -3.96 0.03 -4 -0.01 -4.01 -0.03 -4.02 -0.06 -4.02 -0.09 -3.99 -0.12 -3.97 -0.14 -3.92 -0.16 -3.87 -0.18 -3.78 -0.22 -3.72 -0.23 -3.62 -0.25 -3.51 -0.27 -3.38 -0.29 -3.25 -0.31 -3.09 -0.33 -2.94 -0.33 -2.77 -0.36 -2.55 12.94 -1.88 0.38 2.77 0.35 2.93 0.35 3.08 0.31 3.23 0.31 3.37 0.27 3.5 0.27 3.61 0.23 3.72 0.22 3.8 0.2 3.9 0.16 3.95 0.14 4 0.12 4.05 0.09 4.09 0.06 4.12 0.03 4.1 0.01 4.11 -0.03 4.1 -0.06 4.06 -0.09 4.02 -0.12 3.97 -0.15 3.91 -0.2 3.85 -0.23 3.74 -0.27 3.65 -0.3 3.54 -0.35 3.42 -0.39 3.29 -0.43 3.16 -0.48 3.02 -0.52 2.84 -0.59 2.7 0 0zm0 0c-0.82,3.51 -4.34,5.69 -7.85,4.87 -3.51,-0.82 -5.69,-4.34 -4.87,-7.85l12.72 2.98zm-31.19 89.58l-11.52 -6.18 0 0 1.69 -3.16 1.59 -3.02 1.5 -2.9 1.41 -2.78 1.32 -2.67 1.26 -2.59 1.18 -2.5 1.1 -2.42 1.05 -2.36 1 -2.31 0.94 -2.26 0.88 -2.24 0.85 -2.21 0.81 -2.2 0.78 -2.2 0.74 -2.23 0.73 -2.25 0.71 -2.29 0.7 -2.33 0.68 -2.39 0.67 -2.46 0.68 -2.56 0.69 -2.64 0.69 -2.72 0.7 -2.84 0.72 -2.97 0.74 -3.11 0.77 -3.23 1.63 -6.94 1.78 -7.61 12.72 2.98 -1.78 7.61 -1.63 6.96 -0.77 3.27 -0.76 3.13 -0.72 3.01 -0.72 2.9 -0.71 2.82 -0.71 2.72 -0.7 2.62 -0.71 2.58 -0.72 2.53 -0.74 2.47 -0.75 2.43 -0.77 2.39 -0.8 2.39 -0.84 2.38 -0.87 2.38 -0.91 2.37 -0.96 2.4 -1 2.42 -1.06 2.47 -1.11 2.5 -1.18 2.56 -1.24 2.62 -1.3 2.69 -1.38 2.79 -1.47 2.88 -1.54 2.98 -1.63 3.1 -1.71 3.22 0 0zm0 0c-1.7,3.18 -5.67,4.37 -8.85,2.67 -3.18,-1.7 -4.37,-5.67 -2.67,-8.85l11.52 6.18zm-108.56 114.1l-6.58 -11.3 -0.5 0.33 4.49 -3.2 4.37 -3.14 4.25 -3.06 4.12 -3 4.01 -2.96 3.91 -2.91 3.79 -2.87 3.7 -2.85 3.6 -2.84 3.51 -2.83 3.42 -2.83 3.34 -2.84 3.26 -2.87 3.2 -2.89 3.13 -2.93 3.06 -2.99 3.01 -3.04 2.95 -3.11 2.93 -3.18 2.86 -3.27 2.84 -3.38 2.82 -3.48 2.78 -3.59 2.77 -3.72 2.75 -3.86 2.75 -4.01 2.74 -4.16 2.74 -4.33 2.74 -4.51 2.75 -4.69 2.76 -4.89 2.78 -5.09 11.52 6.18 -2.88 5.25 -2.86 5.07 -2.85 4.87 -2.86 4.69 -2.86 4.53 -2.88 4.36 -2.87 4.21 -2.91 4.06 -2.91 3.94 -2.96 3.81 -2.98 3.68 -3 3.58 -3.06 3.47 -3.09 3.38 -3.13 3.29 -3.19 3.22 -3.24 3.15 -3.29 3.09 -3.36 3.05 -3.42 2.99 -3.48 2.96 -3.56 2.95 -3.63 2.93 -3.7 2.92 -3.8 2.93 -3.89 2.95 -3.97 2.95 -4.07 3 -4.18 3.04 -4.29 3.08 -4.39 3.16 -4.51 3.22 -0.5 0.33zm0.5 -0.33c-2.93,2.09 -7.02,1.4 -9.11,-1.53 -2.09,-2.93 -1.4,-7.02 1.53,-9.11l7.58 10.64zm-65.06 36.56l-4.18 -12.38 -2.78 1.83 1.16 -1.16 1.21 -1.01 1.33 -1.02 1.48 -1.03 1.6 -1.06 1.75 -1.11 1.89 -1.16 2.02 -1.2 2.13 -1.24 2.23 -1.27 2.33 -1.32 2.41 -1.33 2.46 -1.34 2.53 -1.38 2.55 -1.37 2.59 -1.39 2.61 -1.38 2.59 -1.36 2.58 -1.36 2.56 -1.33 4.94 -2.58 4.65 -2.43 4.26 -2.23 3.75 -1.98 1.62 -0.87 1.43 -0.78 1.25 -0.7 1.03 -0.59 6.58 11.3 -1.19 0.67 -1.35 0.76 -1.55 0.84 -1.7 0.91 -3.79 2 -4.28 2.25 -4.67 2.43 -4.94 2.58 -2.54 1.33 -2.56 1.34 -2.57 1.36 -2.57 1.36 -2.55 1.37 -2.53 1.35 -2.47 1.34 -2.42 1.34 -2.35 1.29 -2.25 1.26 -2.15 1.23 -2.03 1.18 -1.88 1.12 -1.73 1.06 -1.55 0.99 -1.38 0.92 -1.14 0.79 -0.87 0.66 -0.59 0.49 -0.18 0.18 -2.78 1.83zm2.78 -1.83c-2.4,2.68 -6.55,2.91 -9.23,0.51 -2.68,-2.4 -2.91,-6.55 -0.51,-9.23l9.74 8.72zm-154.16 47.28l-2.56 -12.82 -0.18 0.04 4.95 -1.15 4.9 -1.16 4.87 -1.19 4.84 -1.21 4.79 -1.22 4.76 -1.24 4.73 -1.26 4.72 -1.28 4.68 -1.29 4.66 -1.32 4.66 -1.34 4.62 -1.34 4.62 -1.36 4.6 -1.39 4.6 -1.39 4.58 -1.41 4.58 -1.43 4.59 -1.45 4.57 -1.45 4.58 -1.48 4.59 -1.48 4.6 -1.5 4.6 -1.51 4.61 -1.53 4.63 -1.55 4.66 -1.55 4.66 -1.56 4.68 -1.58 9.46 -3.19 9.56 -3.24 4.18 12.38 -9.56 3.24 -9.46 3.19 -4.7 1.58 -4.68 1.58 -4.66 1.55 -4.65 1.55 -4.63 1.53 -4.64 1.53 -4.62 1.5 -4.61 1.5 -4.62 1.48 -4.61 1.47 -4.61 1.45 -4.62 1.45 -4.64 1.43 -4.64 1.41 -4.66 1.39 -4.66 1.38 -4.68 1.36 -4.7 1.34 -4.72 1.34 -4.74 1.31 -4.78 1.3 -4.79 1.28 -4.84 1.26 -4.87 1.24 -4.9 1.21 -4.93 1.21 -4.98 1.18 -5.01 1.17 -0.18 0.04zm0.18 -0.04c-3.51,0.8 -7.03,-1.4 -7.83,-4.91 -0.8,-3.51 1.4,-7.03 4.91,-7.83l2.92 12.74zm-105.09 17.33l-1.96 -12.92 0 0 6.67 -1.01 6.61 -0.99 6.55 -0.99 6.51 -0.98 6.47 -0.99 6.47 -0.99 6.42 -0.99 6.43 -1.01 3.21 -0.52 3.23 -0.52 3.21 -0.52 3.21 -0.53 3.24 -0.54 3.22 -0.55 3.23 -0.56 3.25 -0.56 3.27 -0.58 3.26 -0.58 3.26 -0.6 3.31 -0.61 3.3 -0.62 3.31 -0.64 3.33 -0.64 3.35 -0.67 2.56 12.82 -3.39 0.67 -3.37 0.66 -3.37 0.64 -3.34 0.62 -3.31 0.61 -3.32 0.62 -3.3 0.58 -3.29 0.58 -3.27 0.58 -3.27 0.56 -3.26 0.55 -3.24 0.54 -3.25 0.55 -3.25 0.52 -3.23 0.52 -3.23 0.52 -6.47 1.03 -6.46 0.99 -6.47 0.99 -6.49 0.99 -6.53 0.98 -6.55 0.99 -6.61 0.99 -6.65 1.01 0 0zm0 0c-3.56,0.54 -6.9,-1.92 -7.44,-5.48 -0.54,-3.56 1.92,-6.9 5.48,-7.44l1.96 12.92zm-148.06 12.85l-0.18 -13.06 0 0 3.52 -0.07 3.71 -0.09 3.87 -0.13 4.06 -0.16 4.19 -0.19 4.34 -0.21 4.46 -0.24 4.58 -0.27 4.68 -0.29 4.77 -0.31 4.84 -0.34 4.92 -0.36 4.97 -0.37 5.01 -0.4 5.05 -0.42 5.06 -0.44 5.08 -0.45 5.07 -0.47 5.07 -0.47 5.02 -0.49 4.99 -0.51 4.94 -0.52 4.89 -0.53 4.81 -0.52 4.71 -0.55 4.63 -0.55 4.51 -0.55 4.41 -0.56 4.25 -0.56 4.13 -0.56 3.96 -0.57 3.79 -0.56 1.96 12.92 -3.87 0.58 -4.04 0.57 -4.19 0.58 -4.33 0.56 -4.45 0.56 -4.57 0.57 -4.67 0.55 -4.77 0.55 -4.85 0.54 -4.93 0.53 -4.98 0.52 -5.03 0.51 -5.08 0.49 -5.09 0.49 -5.11 0.47 -5.12 0.45 -5.1 0.44 -5.09 0.42 -5.05 0.4 -5.01 0.39 -4.96 0.36 -4.9 0.34 -4.83 0.31 -4.72 0.29 -4.62 0.27 -4.52 0.24 -4.4 0.23 -4.27 0.19 -4.12 0.16 -3.97 0.13 -3.81 0.09 -3.62 0.07 0 0zm0 0c-3.6,0.04 -6.58,-2.84 -6.62,-6.44 -0.04,-3.6 2.84,-6.58 6.44,-6.62l0.18 13.06zm-162.39 -2.22l13.06 -0.28 -6.28 -6.39 4.98 0.17 4.96 0.13 4.94 0.09 4.93 0.05 4.9 0.02 4.89 -0.02 4.87 -0.04 4.85 -0.08 4.85 -0.1 4.83 -0.13 4.82 -0.14 4.81 -0.17 4.81 -0.18 4.8 -0.2 4.81 -0.21 4.79 -0.22 9.6 -0.47 9.6 -0.48 4.81 -0.24 4.81 -0.23 4.82 -0.24 4.84 -0.22 4.83 -0.21 4.85 -0.21 4.87 -0.19 4.88 -0.17 4.89 -0.15 4.91 -0.14 4.93 -0.11 4.96 -0.08 0.18 13.06 -4.88 0.08 -4.85 0.11 -4.87 0.14 -4.85 0.15 -4.82 0.17 -4.81 0.19 -4.83 0.21 -4.81 0.21 -4.8 0.22 -4.8 0.24 -4.81 0.23 -4.79 0.24 -9.62 0.48 -9.62 0.47 -4.83 0.22 -4.83 0.21 -4.84 0.2 -4.85 0.18 -4.87 0.17 -4.88 0.14 -4.89 0.13 -4.91 0.1 -4.93 0.08 -4.95 0.04 -4.97 0.02 -5 -0.02 -5.01 -0.05 -5.04 -0.09 -5.06 -0.13 -5.1 -0.17 -6.28 -6.39zm6.28 6.39c-3.6,-0.13 -6.41,-3.18 -6.28,-6.78 0.13,-3.6 3.18,-6.41 6.78,-6.28l-0.5 13.06zm-1.61 -58.73l12.8 2.6 0.08 -0.45 -0.39 2.94 -0.4 3.02 -0.4 3.12 -0.41 3.2 -0.41 3.25 -0.39 3.28 -0.19 1.64 -0.19 1.65 -0.17 1.66 -0.18 1.65 -0.17 1.64 -0.15 1.63 -0.15 1.66 -0.15 1.62 -0.13 1.61 -0.12 1.61 -0.11 1.57 -0.1 1.58 -0.09 1.55 -0.07 1.52 -0.06 1.47 -0.04 1.48 -0.03 1.46 -0.02 1.39 0.01 1.36 0.02 1.35 -13.06 0.28 -0.02 -1.49 -0.01 -1.54 0.02 -1.57 0.03 -1.54 0.04 -1.6 0.06 -1.63 0.09 -1.64 0.09 -1.63 0.1 -1.64 0.11 -1.69 0.14 -1.67 0.13 -1.69 0.15 -1.7 0.15 -1.68 0.17 -1.71 0.17 -1.72 0.18 -1.69 0.19 -1.7 0.19 -1.69 0.19 -1.7 0.41 -3.34 0.41 -3.29 0.41 -3.22 0.4 -3.14 0.4 -3.06 0.39 -2.92 0.08 -0.45zm-0.08 0.45c0.46,-3.57 3.76,-6.09 7.33,-5.63 3.57,0.46 6.09,3.76 5.63,7.33l-12.96 -1.7zm55.33 -241.63l12.78 2.76 0 0 -1.67 7.64 -1.67 7.6 -1.69 7.58 -1.71 7.56 -1.71 7.52 -1.73 7.5 -1.74 7.49 -1.75 7.48 -1.76 7.45 -1.76 7.44 -1.76 7.43 -1.79 7.44 -3.55 14.84 -3.56 14.85 -1.76 7.43 -1.78 7.44 -1.77 7.44 -1.76 7.47 -1.76 7.48 -1.76 7.49 -1.73 7.52 -1.73 7.53 -1.72 7.57 -1.7 7.59 -1.7 7.62 -1.68 7.65 -1.65 7.69 -1.65 7.73 -1.62 7.77 -1.61 7.8 -12.8 -2.6 1.61 -7.86 1.64 -7.81 1.65 -7.77 1.67 -7.73 1.68 -7.69 1.7 -7.66 1.72 -7.61 1.72 -7.59 1.73 -7.57 1.75 -7.54 1.76 -7.51 1.76 -7.5 1.76 -7.47 1.77 -7.46 1.78 -7.46 1.78 -7.43 3.56 -14.85 3.55 -14.84 1.77 -7.42 1.76 -7.43 1.76 -7.42 1.76 -7.45 1.75 -7.44 1.72 -7.47 1.73 -7.48 1.71 -7.5 1.71 -7.52 1.67 -7.54 1.67 -7.58 1.65 -7.6 0 0zm0 0c0.76,-3.52 4.25,-5.77 7.77,-5.01 3.52,0.76 5.77,4.25 5.01,7.77l-12.78 -2.76zm39.11 -187.03l10.02 8.38 1.44 -3.14 -0.97 5.84 -0.98 5.82 -1 5.83 -1.04 5.83 -1.05 5.79 -1.07 5.81 -1.09 5.8 -1.11 5.8 -1.13 5.79 -1.15 5.78 -1.16 5.77 -1.17 5.78 -1.19 5.77 -1.19 5.76 -1.22 5.77 -1.22 5.75 -1.23 5.76 -1.23 5.75 -1.25 5.74 -1.25 5.75 -2.52 11.49 -2.52 11.48 -2.53 11.48 -2.53 11.47 -1.25 5.74 -1.26 5.73 -1.24 5.74 -1.24 5.74 -12.78 -2.76 1.24 -5.74 1.26 -5.76 1.26 -5.75 1.25 -5.74 2.53 -11.49 2.53 -11.46 2.52 -11.48 2.52 -11.47 1.23 -5.73 1.25 -5.74 1.23 -5.73 1.23 -5.74 1.22 -5.73 1.2 -5.73 1.19 -5.74 1.19 -5.75 1.17 -5.74 1.14 -5.75 1.15 -5.74 1.11 -5.75 1.11 -5.76 1.09 -5.74 1.05 -5.77 1.05 -5.77 1.02 -5.77 1 -5.77 0.98 -5.78 0.95 -5.78 1.44 -3.14zm-1.44 3.14c0.57,-3.56 3.94,-5.97 7.5,-5.4 3.56,0.57 5.97,3.94 5.4,7.5l-12.9 -2.1zm30.82 -238.87l13 1.3 0.02 -0.16 -0.23 2.9 -0.3 3.86 -0.39 4.74 -0.45 5.55 -0.53 6.31 -0.6 7 -0.66 7.62 -0.73 8.18 -0.78 8.67 -0.84 9.11 -0.9 9.46 -0.94 9.76 -0.98 9.99 -1.02 10.16 -1.06 10.26 -1.1 10.3 -1.14 10.27 -1.15 10.17 -1.18 10.01 -1.21 9.79 -1.21 9.5 -1.24 9.16 -1.25 8.73 -1.25 8.26 -1.26 7.72 -1.27 7.12 -1.27 6.47 -1.28 5.75 -1.29 5.03 -1.35 4.28 -1.48 3.62 -2.04 3.24 -10.02 -8.38 0.32 -0.6 0.9 -2.24 1.09 -3.48 1.15 -4.49 1.2 -5.41 1.23 -6.19 1.23 -6.92 1.24 -7.56 1.23 -8.12 1.23 -8.63 1.22 -9.06 1.21 -9.42 1.19 -9.73 1.18 -9.95 1.15 -10.13 1.12 -10.23 1.1 -10.24 1.06 -10.22 1.02 -10.14 0.98 -9.95 0.94 -9.74 0.88 -9.44 0.84 -9.07 0.78 -8.65 0.73 -8.16 0.66 -7.6 0.6 -6.98 0.53 -6.29 0.45 -5.53 0.39 -4.72 0.3 -3.82 0.21 -2.88 0.02 -0.16zm-0.02 0.16c0.27,-3.6 3.41,-6.3 7.01,-6.03 3.6,0.27 6.3,3.41 6.03,7.01l-13.04 -0.98zm1 -108.05l12.96 -1.74 0 0 0.44 3.45 0.39 3.46 0.35 3.48 0.32 3.49 0.28 3.51 0.24 3.5 0.2 3.53 0.18 3.54 0.13 3.54 0.1 3.53 0.08 3.55 0.04 3.55 0.01 3.55 -0.01 3.55 -0.04 3.53 -0.06 3.54 -0.09 3.55 -0.12 3.51 -0.13 3.5 -0.15 3.52 -0.19 3.49 -0.19 3.47 -0.21 3.45 -0.22 3.45 -0.25 3.42 -0.26 3.4 -0.27 3.39 -0.28 3.35 -0.29 3.32 -0.3 3.31 -0.32 3.27 -0.32 3.24 -13 -1.3 0.32 -3.2 0.3 -3.23 0.3 -3.25 0.29 -3.28 0.28 -3.31 0.27 -3.31 0.24 -3.36 0.25 -3.36 0.22 -3.37 0.21 -3.39 0.19 -3.41 0.17 -3.41 0.15 -3.42 0.13 -3.44 0.12 -3.45 0.09 -3.43 0.06 -3.44 0.04 -3.45 0.01 -3.45 -0.01 -3.45 -0.04 -3.43 -0.08 -3.43 -0.1 -3.43 -0.13 -3.42 -0.16 -3.4 -0.2 -3.39 -0.24 -3.38 -0.26 -3.37 -0.3 -3.33 -0.35 -3.34 -0.37 -3.3 -0.42 -3.27 0 0zm0 0c-0.48,-3.57 2.04,-6.87 5.61,-7.35 3.57,-0.48 6.87,2.04 7.35,5.61l-12.96 1.74zm-46.48 -143.27l10.8 -7.34 0.01 0 3.4 5.09 3.21 4.98 3.03 4.85 2.85 4.75 2.68 4.65 2.52 4.59 2.37 4.49 2.21 4.43 2.07 4.39 1.93 4.34 1.79 4.29 1.69 4.27 1.56 4.26 1.46 4.24 1.34 4.25 1.25 4.24 1.17 4.27 1.09 4.29 1.01 4.32 0.95 4.38 0.88 4.42 0.85 4.49 0.79 4.56 0.76 4.64 0.74 4.74 0.72 4.84 0.7 4.95 0.7 5.09 1.42 10.57 1.49 11.21 -12.96 1.74 -1.49 -11.23 -1.4 -10.53 -0.7 -5.03 -0.7 -4.89 -0.7 -4.76 -0.72 -4.64 -0.74 -4.52 -0.77 -4.42 -0.81 -4.31 -0.86 -4.26 -0.89 -4.16 -0.97 -4.1 -1.03 -4.07 -1.09 -4.01 -1.19 -4 -1.26 -3.97 -1.36 -3.98 -1.46 -3.98 -1.57 -3.99 -1.69 -4.03 -1.81 -4.08 -1.95 -4.11 -2.09 -4.19 -2.23 -4.27 -2.4 -4.35 -2.56 -4.45 -2.73 -4.55 -2.91 -4.67 -3.11 -4.8 -3.3 -4.93 0.01 0zm-0.01 0c-2.02,-2.98 -1.24,-7.06 1.74,-9.08 2.98,-2.02 7.06,-1.24 9.08,1.74l-10.82 7.34zm-57.34 -54.34l6.08 -11.56 0 0 2.12 1.16 2.13 1.24 2.14 1.31 2.15 1.4 2.15 1.46 2.18 1.53 2.17 1.61 2.16 1.65 2.17 1.71 2.16 1.77 2.16 1.81 2.14 1.85 2.14 1.89 2.12 1.94 2.09 1.95 2.09 1.99 2.06 2.01 2.02 2.04 1.99 2.03 1.97 2.07 1.92 2.06 1.89 2.06 1.84 2.07 1.79 2.06 1.75 2.05 1.69 2.04 1.64 2.03 1.58 2 1.52 1.99 1.45 1.96 1.38 1.92 1.31 1.9 -10.8 7.34 -1.19 -1.7 -1.26 -1.76 -1.33 -1.8 -1.4 -1.83 -1.48 -1.88 -1.52 -1.89 -1.59 -1.9 -1.65 -1.95 -1.69 -1.94 -1.74 -1.95 -1.79 -1.96 -1.82 -1.96 -1.87 -1.95 -1.89 -1.95 -1.92 -1.92 -1.94 -1.89 -1.97 -1.89 -1.99 -1.85 -2 -1.82 -2 -1.77 -2.02 -1.75 -2 -1.69 -2.02 -1.63 -2.01 -1.59 -2 -1.53 -1.97 -1.45 -1.96 -1.39 -1.93 -1.32 -1.91 -1.22 -1.88 -1.17 -1.83 -1.06 -1.78 -0.98 0 0zm0 0c-3.19,-1.67 -4.41,-5.63 -2.74,-8.82 1.67,-3.19 5.63,-4.41 8.82,-2.74l-6.08 11.56zm-144.39 -47.02l1.72 -12.96 0 0 5.99 0.82 5.76 0.81 5.55 0.83 5.37 0.84 5.18 0.86 5.01 0.87 4.88 0.9 4.73 0.94 4.61 0.97 4.5 1 4.38 1.04 4.33 1.1 4.24 1.15 4.19 1.19 4.14 1.27 4.1 1.32 4.08 1.38 4.08 1.45 4.08 1.53 4.1 1.6 4.14 1.69 4.17 1.76 4.23 1.86 4.3 1.94 4.39 2.04 4.48 2.14 4.59 2.24 4.73 2.35 4.86 2.46 5.01 2.56 5.19 2.7 5.37 2.81 -6.08 11.56 -5.33 -2.79 -5.13 -2.66 -4.95 -2.54 -4.8 -2.42 -4.63 -2.31 -4.51 -2.18 -4.38 -2.1 -4.25 -1.98 -4.18 -1.88 -4.09 -1.8 -4.01 -1.7 -3.96 -1.61 -3.92 -1.54 -3.9 -1.45 -3.88 -1.39 -3.9 -1.32 -3.9 -1.26 -3.94 -1.19 -3.99 -1.15 -4.04 -1.09 -4.13 -1.04 -4.22 -1 -4.34 -0.98 -4.43 -0.93 -4.59 -0.9 -4.72 -0.88 -4.89 -0.85 -5.08 -0.84 -5.25 -0.82 -5.47 -0.81 -5.68 -0.81 -5.91 -0.8 0 0zm0 0c-3.57,-0.47 -6.09,-3.77 -5.62,-7.34 0.47,-3.57 3.77,-6.09 7.34,-5.62l-1.72 12.96zm-147.62 -1.8l-2.14 -12.88 0 -0.01 3.22 -0.47 3.5 -0.44 3.76 -0.38 4.02 -0.33 4.24 -0.29 4.46 -0.26 4.66 -0.21 4.84 -0.16 4.99 -0.14 5.16 -0.1 5.26 -0.06 5.37 -0.03 5.45 0 5.51 0.03 5.56 0.06 5.58 0.09 5.58 0.12 5.56 0.14 5.53 0.17 5.46 0.19 5.39 0.22 5.29 0.23 5.16 0.27 5.04 0.27 4.87 0.3 4.69 0.31 4.49 0.34 4.28 0.34 4.04 0.35 3.79 0.38 3.51 0.39 3.23 0.4 -1.72 12.96 -3.03 -0.38 -3.35 -0.37 -3.65 -0.36 -3.92 -0.35 -4.18 -0.34 -4.41 -0.32 -4.61 -0.31 -4.79 -0.3 -4.96 -0.27 -5.1 -0.25 -5.23 -0.23 -5.33 -0.22 -5.4 -0.19 -5.45 -0.17 -5.5 -0.14 -5.52 -0.12 -5.52 -0.09 -5.48 -0.06 -5.45 -0.03 -5.37 0 -5.29 0.03 -5.18 0.06 -5.04 0.1 -4.91 0.14 -4.72 0.16 -4.52 0.21 -4.32 0.24 -4.06 0.27 -3.8 0.33 -3.5 0.34 -3.2 0.4 -2.84 0.43 0 -0.01zm0 0.01c-3.56,0.59 -6.93,-1.82 -7.52,-5.38 -0.59,-3.56 1.82,-6.93 5.38,-7.52l2.14 12.9zm-309.08 53.62l-3.2 -12.68 -0.31 0.09 9.36 -2.79 9.43 -2.66 9.49 -2.53 9.52 -2.4 9.58 -2.3 9.62 -2.19 9.67 -2.07 9.69 -1.99 9.73 -1.9 9.76 -1.81 9.77 -1.73 9.81 -1.67 9.82 -1.59 9.84 -1.54 9.85 -1.48 9.85 -1.45 9.86 -1.39 9.86 -1.37 9.85 -1.34 9.85 -1.32 19.65 -2.59 19.59 -2.59 9.75 -1.3 9.73 -1.32 9.69 -1.35 9.66 -1.37 9.61 -1.4 9.58 -1.45 9.52 -1.49 9.48 -1.54 2.14 12.88 -9.56 1.56 -9.6 1.51 -9.64 1.45 -9.67 1.42 -9.7 1.37 -9.73 1.35 -9.77 1.32 -9.77 1.32 -19.59 2.59 -19.65 2.59 -9.83 1.32 -9.81 1.32 -9.82 1.37 -9.82 1.39 -9.79 1.43 -9.79 1.48 -9.76 1.52 -9.74 1.59 -9.71 1.65 -9.69 1.71 -9.64 1.79 -9.61 1.88 -9.57 1.95 -9.53 2.05 -9.46 2.15 -9.44 2.26 -9.36 2.36 -9.31 2.49 -9.25 2.6 -9.18 2.75 -0.31 0.09zm0.31 -0.09c-3.45,1.05 -7.11,-0.89 -8.16,-4.34 -1.05,-3.45 0.89,-7.11 4.34,-8.16l3.82 12.5zm-667.74 192.01l12.46 3.92 -5.19 -8.41 1.92 -0.14 5.66 -0.95 8.31 -1.85 10.64 -2.71 12.76 -3.49 14.72 -4.21 16.54 -4.89 18.2 -5.51 19.73 -6.06 21.1 -6.58 22.34 -7.02 23.44 -7.42 24.38 -7.76 25.21 -8.06 25.87 -8.29 26.4 -8.48 26.79 -8.61 27.04 -8.68 27.15 -8.7 27.11 -8.67 26.94 -8.59 26.63 -8.45 26.17 -8.25 25.58 -8.01 24.83 -7.7 23.97 -7.35 22.94 -6.95 21.79 -6.48 20.5 -5.97 19.07 -5.39 17.49 -4.79 15.79 -4.11 3.2 12.68 -15.61 4.05 -17.37 4.75 -18.97 5.37 -20.4 5.95 -21.73 6.46 -22.9 6.93 -23.91 7.33 -24.81 7.7 -25.54 7.99 -26.15 8.25 -26.61 8.45 -26.92 8.57 -27.11 8.67 -27.13 8.7 -27.04 8.68 -26.79 8.61 -26.4 8.48 -25.89 8.29 -25.21 8.06 -24.4 7.78 -23.46 7.42 -22.38 7.04 -21.14 6.58 -19.77 6.08 -18.28 5.53 -16.62 4.91 -14.86 4.25 -12.94 3.55 -10.92 2.77 -8.81 1.97 -6.74 1.11 -5.48 0.06 -5.19 -8.41zm5.19 8.41c-3.56,-0.57 -5.98,-3.93 -5.41,-7.49 0.57,-3.56 3.93,-5.98 7.49,-5.41l-2.08 12.9zm333.42 -194.63l5.62 11.8 -0.03 0.01 -5.14 2.4 -6.37 2.94 -7.53 3.44 -8.58 3.91 -9.54 4.37 -10.44 4.77 -11.22 5.16 -11.93 5.49 -12.55 5.82 -13.06 6.08 -13.51 6.33 -13.84 6.55 -14.1 6.73 -14.26 6.87 -14.33 6.99 -14.32 7.06 -14.22 7.11 -14.01 7.13 -13.72 7.1 -13.35 7.05 -12.87 6.96 -12.31 6.83 -11.66 6.67 -10.9 6.48 -10.06 6.25 -9.12 5.98 -8.07 5.65 -6.92 5.29 -5.66 4.84 -4.27 4.28 -2.73 3.49 -1.17 2.32 -12.46 -3.92 2.63 -5.44 3.97 -5.15 5.17 -5.2 6.32 -5.4 7.42 -5.67 8.45 -5.91 9.42 -6.18 10.3 -6.39 11.1 -6.6 11.82 -6.77 12.45 -6.91 12.99 -7.02 13.45 -7.11 13.82 -7.14 14.09 -7.17 14.28 -7.15 14.38 -7.1 14.39 -7.01 14.32 -6.89 14.14 -6.75 13.88 -6.57 13.53 -6.35 13.1 -6.1 12.57 -5.82 11.95 -5.51 11.24 -5.16 10.44 -4.77 9.56 -4.37 8.58 -3.91 7.49 -3.44 6.33 -2.92 5.08 -2.36 -0.03 0.01zm0.03 -0.01c3.26,-1.53 7.16,-0.13 8.69,3.13 1.53,3.26 0.13,7.16 -3.13,8.69l-5.56 -11.82zm-0.47 -26.42l8.8 -9.66 0 0 2.72 2.51 2.5 2.36 2.31 2.23 2.1 2.12 1.9 1.99 1.72 1.9 1.56 1.81 1.38 1.78 1.22 1.7 1.06 1.7 0.9 1.72 0.74 1.78 0.54 1.89 0.27 1.95 -0.03 2.02 -0.38 2.03 -0.72 1.88 -0.96 1.67 -1.13 1.43 -1.24 1.24 -1.29 1.06 -1.34 0.95 -1.4 0.88 -1.45 0.81 -1.5 0.78 -1.56 0.77 -1.62 0.76 -1.69 0.78 -1.74 0.8 -1.82 0.82 -1.86 0.86 -1.93 0.91 -5.62 -11.8 2.03 -0.95 1.94 -0.9 1.84 -0.84 1.72 -0.78 1.61 -0.74 1.48 -0.7 1.32 -0.65 1.2 -0.62 1.01 -0.57 0.82 -0.5 0.66 -0.47 0.45 -0.36 0.24 -0.24 0.07 -0.09 -0.02 0.05 -0.08 0.2 -0.04 0.25 -0.01 0.12 -0.01 -0.07 -0.08 -0.29 -0.22 -0.52 -0.42 -0.78 -0.6 -0.96 -0.82 -1.16 -1.02 -1.3 -1.26 -1.47 -1.48 -1.64 -1.7 -1.77 -1.92 -1.94 -2.15 -2.09 -2.38 -2.24 -2.62 -2.41 0 0zm0 0c-2.66,-2.43 -2.86,-6.57 -0.43,-9.23 2.43,-2.66 6.57,-2.86 9.23,-0.43l-8.8 9.66zm-79.14 -65.46l6.76 -11.18 1.08 0.82 1.54 1.41 1.67 1.49 1.76 1.55 1.88 1.61 1.99 1.68 2.08 1.73 2.16 1.78 2.25 1.83 2.33 1.88 2.4 1.92 2.46 1.96 2.53 2.01 5.22 4.14 5.39 4.26 2.75 2.17 2.78 2.2 2.8 2.23 2.82 2.25 2.84 2.27 2.83 2.29 2.83 2.3 2.84 2.32 2.84 2.34 2.82 2.34 2.79 2.37 2.77 2.35 2.75 2.37 2.7 2.37 2.67 2.37 2.62 2.37 -8.8 9.66 -2.54 -2.29 -2.59 -2.31 -2.64 -2.31 -2.67 -2.31 -2.71 -2.31 -2.75 -2.31 -2.76 -2.3 -2.78 -2.3 -2.8 -2.28 -2.81 -2.28 -2.81 -2.27 -2.8 -2.25 -2.8 -2.23 -2.78 -2.21 -2.78 -2.2 -2.73 -2.17 -5.39 -4.26 -5.24 -4.14 -2.53 -2.01 -2.5 -1.98 -2.44 -1.96 -2.35 -1.9 -2.31 -1.87 -2.22 -1.84 -2.14 -1.77 -2.05 -1.74 -1.98 -1.69 -1.88 -1.65 -1.77 -1.59 -1.68 -1.55 1.08 0.82zm-1.08 -0.82c-2.63,-2.46 -2.77,-6.6 -0.31,-9.23 2.46,-2.63 6.6,-2.77 9.23,-0.31l-8.92 9.54zm-98.93 -74.79l106.77 64.44 -6.76 11.18 -106.77 -64.44 6.68 -11.23 0.08 0.05zm-6.76 11.18c-3.08,-1.86 -4.07,-5.89 -2.21,-8.97 1.86,-3.08 5.89,-4.07 8.97,-2.21l-6.76 11.18zm-151.75 -73.05l5.16 -12 0.05 0.02 9.76 4.29 9.75 4.28 9.73 4.27 9.71 4.3 4.84 2.15 4.84 2.15 4.85 2.17 4.83 2.19 4.82 2.18 4.83 2.21 4.8 2.22 4.81 2.23 4.8 2.25 4.8 2.29 4.77 2.28 4.77 2.32 4.77 2.33 4.75 2.37 4.75 2.38 4.74 2.42 4.73 2.45 4.72 2.48 4.71 2.51 4.69 2.55 4.68 2.58 4.67 2.61 4.67 2.66 4.64 2.69 -6.6 11.28 -4.56 -2.65 -4.57 -2.6 -4.59 -2.57 -4.62 -2.54 -4.61 -2.51 -4.63 -2.47 -4.64 -2.44 -4.67 -2.41 -4.66 -2.38 -4.69 -2.36 -4.69 -2.33 -4.71 -2.31 -4.73 -2.28 -4.73 -2.28 -4.74 -2.25 -4.74 -2.23 -4.77 -2.21 -4.78 -2.2 -4.79 -2.19 -4.8 -2.18 -4.79 -2.17 -4.81 -2.15 -4.82 -2.15 -4.84 -2.15 -9.69 -4.28 -9.71 -4.27 -9.75 -4.28 -9.76 -4.29 0.05 0.02zm-0.05 -0.02c-3.3,-1.45 -4.8,-5.31 -3.35,-8.61 1.45,-3.3 5.31,-4.8 8.61,-3.35l-5.26 11.96zm-168.12 -55.91l2.18 -12.88 0.32 0.06 5.3 1.19 5.34 1.26 5.35 1.3 5.38 1.34 5.41 1.4 5.42 1.44 5.45 1.49 5.45 1.54 5.47 1.57 5.47 1.62 5.49 1.65 5.48 1.69 5.48 1.73 5.48 1.77 5.47 1.79 5.47 1.82 5.45 1.86 5.43 1.88 5.43 1.9 5.4 1.94 5.38 1.96 5.35 1.98 5.32 1.99 5.29 2.02 5.26 2.03 5.22 2.05 5.19 2.07 5.14 2.08 5.09 2.08 5.04 2.09 5 2.1 4.94 2.12 -5.16 12 -4.88 -2.08 -4.94 -2.08 -4.98 -2.07 -5.03 -2.06 -5.08 -2.06 -5.13 -2.03 -5.16 -2.03 -5.2 -2.01 -5.23 -2 -5.26 -1.97 -5.29 -1.96 -5.32 -1.92 -5.34 -1.92 -5.35 -1.88 -5.37 -1.86 -5.39 -1.84 -5.39 -1.8 -5.41 -1.77 -5.4 -1.73 -5.42 -1.71 -5.4 -1.67 -5.41 -1.63 -5.39 -1.6 -5.39 -1.55 -5.37 -1.5 -5.35 -1.47 -5.34 -1.42 -5.31 -1.38 -5.28 -1.32 -5.27 -1.28 -5.22 -1.22 -5.2 -1.17 0.32 0.06zm-0.32 -0.06c-3.52,-0.77 -5.74,-4.27 -4.97,-7.79 0.77,-3.52 4.27,-5.74 7.79,-4.97l-2.82 12.76zm-75.33 -25.94l77.83 13.12 -2.18 12.88 -77.83 -13.12 1.22 -12.97 0.96 0.09zm-2.18 12.88c-3.55,-0.6 -5.95,-3.98 -5.35,-7.53 0.6,-3.55 3.98,-5.95 7.53,-5.35l-2.18 12.88zm-151.94 43.03l-9.42 -9.06 0.36 -0.35 4.63 -4.07 4.5 -3.84 4.39 -3.63 4.31 -3.4 4.21 -3.2 4.16 -3 4.13 -2.81 4.1 -2.61 4.1 -2.42 4.09 -2.24 4.11 -2.06 4.16 -1.89 4.19 -1.71 4.26 -1.56 4.32 -1.39 4.42 -1.26 4.51 -1.09 4.62 -0.97 4.75 -0.83 4.88 -0.71 5.03 -0.6 5.2 -0.49 5.41 -0.4 5.59 -0.3 5.81 -0.22 6.06 -0.15 6.31 -0.08 6.58 -0.02 6.87 0.03 7.17 0.07 7.51 0.12 7.85 0.14 -0.26 13.06 -7.81 -0.14 -7.45 -0.12 -7.11 -0.07 -6.77 -0.03 -6.48 0.02 -6.17 0.08 -5.88 0.15 -5.63 0.22 -5.37 0.28 -5.13 0.38 -4.92 0.47 -4.71 0.56 -4.52 0.65 -4.35 0.77 -4.2 0.87 -4.07 0.99 -3.94 1.12 -3.88 1.25 -3.78 1.38 -3.73 1.53 -3.7 1.69 -3.69 1.84 -3.69 2.02 -3.72 2.2 -3.76 2.39 -3.81 2.59 -3.88 2.8 -3.99 3.02 -4.09 3.24 -4.21 3.47 -4.34 3.72 -4.49 3.95 0.36 -0.35zm-0.36 0.35c-2.69,2.4 -6.83,2.16 -9.23,-0.53 -2.4,-2.69 -2.16,-6.83 0.53,-9.23l8.7 9.76zm-57.94 97.05l-12.46 -3.96 0 0.01 1.17 -3.6 1.22 -3.59 1.29 -3.56 1.32 -3.53 1.39 -3.52 1.42 -3.49 1.49 -3.47 1.53 -3.44 1.58 -3.43 1.63 -3.4 1.68 -3.37 1.73 -3.35 1.77 -3.31 1.81 -3.29 1.87 -3.27 1.92 -3.25 1.96 -3.21 2.01 -3.17 2.05 -3.16 2.09 -3.11 2.13 -3.1 2.19 -3.07 2.22 -3.02 2.26 -3 2.31 -2.97 2.36 -2.94 2.38 -2.9 2.43 -2.86 2.47 -2.85 2.52 -2.8 2.55 -2.77 2.59 -2.72 9.42 9.06 -2.47 2.6 -2.43 2.63 -2.38 2.66 -2.35 2.69 -2.31 2.74 -2.28 2.76 -2.24 2.8 -2.19 2.81 -2.16 2.86 -2.12 2.88 -2.07 2.91 -2.03 2.94 -1.99 2.97 -1.95 3 -1.91 3.03 -1.86 3.05 -1.82 3.07 -1.77 3.11 -1.73 3.13 -1.69 3.15 -1.63 3.17 -1.6 3.21 -1.55 3.22 -1.5 3.25 -1.45 3.28 -1.41 3.29 -1.36 3.31 -1.31 3.34 -1.26 3.35 -1.21 3.38 -1.16 3.39 -1.11 3.42 0 0.01zm0 -0.01c-1.08,3.44 -4.76,5.34 -8.2,4.26 -3.44,-1.08 -5.34,-4.76 -4.26,-8.2l12.46 3.94zm-36.49 150.42l-11.2 -6.72 -0.93 3.17 0.2 -4.8 0.29 -4.81 0.4 -4.84 0.51 -4.85 0.59 -4.84 0.68 -4.87 0.76 -4.86 0.84 -4.87 0.92 -4.87 0.98 -4.88 1.05 -4.87 1.12 -4.86 1.16 -4.86 1.22 -4.84 1.27 -4.83 1.3 -4.82 1.33 -4.8 1.38 -4.8 1.41 -4.76 1.42 -4.73 1.45 -4.72 1.46 -4.68 1.46 -4.66 1.48 -4.62 1.48 -4.59 1.47 -4.54 1.47 -4.51 1.46 -4.47 1.44 -4.42 1.41 -4.37 1.39 -4.31 1.36 -4.28 12.46 3.96 -1.38 4.3 -1.39 4.35 -1.43 4.39 -1.44 4.44 -1.46 4.45 -1.45 4.49 -1.47 4.54 -1.48 4.57 -1.46 4.58 -1.46 4.6 -1.44 4.64 -1.43 4.66 -1.4 4.67 -1.39 4.68 -1.34 4.68 -1.31 4.72 -1.28 4.72 -1.23 4.71 -1.18 4.72 -1.14 4.72 -1.08 4.72 -1.01 4.71 -0.96 4.7 -0.88 4.69 -0.8 4.67 -0.74 4.66 -0.64 4.65 -0.57 4.62 -0.47 4.59 -0.38 4.56 -0.29 4.55 -0.18 4.5 -0.93 3.17zm0.93 -3.17c-0.1,3.6 -3.12,6.44 -6.72,6.34 -3.6,-0.1 -6.44,-3.12 -6.34,-6.72l13.06 0.38zm-14.21 157.69l-12.98 -1.52 0 0.01 0.21 -2.09 0.21 -2.68 0.22 -3.23 0.22 -3.71 0.22 -4.16 0.22 -4.56 0.23 -4.91 0.24 -5.24 0.5 -11.3 0.55 -12.15 0.3 -6.29 0.31 -6.41 0.35 -6.47 0.35 -6.49 0.38 -6.49 0.41 -6.43 0.42 -6.37 0.47 -6.25 0.49 -6.09 0.52 -5.91 0.56 -5.68 0.6 -5.45 0.64 -5.15 0.68 -4.81 0.73 -4.49 0.78 -4.12 0.86 -3.73 0.94 -3.36 1.09 -3 1.36 -2.72 11.2 6.72 -0.5 1.06 -0.69 1.9 -0.74 2.6 -0.72 3.19 -0.72 3.72 -0.67 4.17 -0.64 4.59 -0.62 4.95 -0.58 5.27 -0.54 5.56 -0.52 5.79 -0.49 6.01 -0.45 6.15 -0.42 6.29 -0.41 6.39 -0.38 6.43 -0.35 6.45 -0.33 6.43 -0.31 6.37 -0.3 6.27 -0.55 12.13 -0.5 11.3 -0.24 5.26 -0.23 4.95 -0.24 4.6 -0.22 4.2 -0.22 3.81 -0.22 3.35 -0.23 2.9 -0.25 2.43 0 0.01zm0 -0.01c-0.41,3.58 -3.66,6.15 -7.24,5.74 -3.58,-0.41 -6.15,-3.66 -5.74,-7.24l12.98 1.5zm-5.78 382.2l1.04 -13.02 -7.05 6.27 0.33 -10.52 0.21 -10.83 0.11 -11.11 0.01 -11.36 -0.08 -11.59 -0.16 -11.82 -0.22 -12 -0.29 -12.16 -0.33 -12.32 -0.38 -12.43 -0.41 -12.54 -0.43 -12.62 -0.9 -25.38 -0.89 -25.44 -0.41 -12.68 -0.39 -12.64 -0.34 -12.57 -0.29 -12.46 -0.24 -12.35 -0.17 -12.22 -0.09 -12.06 0 -11.88 0.09 -11.67 0.19 -11.44 0.3 -11.22 0.43 -10.94 0.57 -10.66 0.71 -10.36 0.86 -10.03 1.02 -9.69 12.98 1.52 -1 9.41 -0.84 9.79 -0.69 10.14 -0.55 10.48 -0.43 10.78 -0.3 11.06 -0.19 11.32 -0.09 11.57 0 11.78 0.09 11.96 0.17 12.14 0.24 12.29 0.29 12.42 0.34 12.51 0.39 12.6 0.41 12.66 0.89 25.42 0.9 25.38 0.43 12.64 0.41 12.56 0.38 12.47 0.33 12.36 0.29 12.22 0.22 12.08 0.16 11.88 0.08 11.69 -0.01 11.46 -0.11 11.23 -0.21 10.97 -0.33 10.68 -7.05 6.27zm7.05 -6.27c-0.13,3.6 -3.17,6.42 -6.77,6.29 -3.6,-0.13 -6.42,-3.17 -6.29,-6.77l13.06 0.48zm-57.78 -8.42l4.24 -12.36 -1.22 -0.29 1.93 0.3 1.86 0.34 1.82 0.38 1.78 0.43 1.69 0.44 1.68 0.48 1.64 0.52 1.6 0.54 1.53 0.54 1.52 0.56 1.47 0.58 1.47 0.57 2.82 1.16 2.77 1.16 1.36 0.56 1.33 0.54 1.35 0.53 1.36 0.53 1.34 0.49 1.35 0.47 1.38 0.46 1.4 0.43 1.41 0.41 1.41 0.37 1.48 0.34 1.5 0.31 1.54 0.27 1.6 0.25 1.65 0.19 1.71 0.17 -1.04 13.02 -2.07 -0.19 -2.01 -0.25 -1.94 -0.29 -1.9 -0.33 -1.86 -0.39 -1.78 -0.42 -1.75 -0.45 -1.71 -0.49 -1.62 -0.51 -1.6 -0.52 -1.57 -0.55 -1.54 -0.57 -1.48 -0.57 -1.47 -0.57 -1.45 -0.6 -1.4 -0.58 -2.75 -1.14 -2.72 -1.12 -1.33 -0.53 -1.35 -0.52 -1.34 -0.5 -1.35 -0.48 -1.36 -0.46 -1.36 -0.42 -1.38 -0.4 -1.43 -0.38 -1.44 -0.35 -1.46 -0.3 -1.54 -0.28 -1.55 -0.24 -1.22 -0.29zm1.22 0.29c-3.57,-0.49 -6.06,-3.8 -5.57,-7.37 0.49,-3.57 3.8,-6.06 7.37,-5.57l-1.8 12.94zm-260.05 -105.93l-9.7 8.76 5.01 -10.91 4.3 0.35 4.85 0.79 5.51 1.18 6.15 1.55 6.77 1.9 7.34 2.21 7.88 2.49 8.39 2.78 8.84 3.02 9.23 3.24 9.56 3.44 9.88 3.6 10.1 3.75 10.32 3.87 10.44 3.97 10.53 4.03 10.58 4.08 10.55 4.09 10.49 4.1 10.37 4.06 20.15 7.92 19.05 7.49 8.97 3.53 8.54 3.33 8.04 3.13 7.51 2.88 6.9 2.63 6.24 2.33 5.55 2.02 4.75 1.68 -4.24 12.36 -4.93 -1.74 -5.65 -2.06 -6.34 -2.37 -6.96 -2.65 -7.53 -2.9 -8.08 -3.13 -8.56 -3.35 -8.99 -3.53 -19.05 -7.49 -20.15 -7.92 -10.35 -4.06 -10.47 -4.08 -10.53 -4.09 -10.54 -4.06 -10.51 -4.03 -10.4 -3.95 -10.26 -3.85 -10.06 -3.73 -9.8 -3.58 -9.5 -3.4 -9.13 -3.22 -8.72 -2.98 -8.25 -2.72 -7.72 -2.45 -7.14 -2.15 -6.49 -1.82 -5.75 -1.45 -4.97 -1.06 -4.07 -0.67 -2.96 -0.25 5.01 -10.91zm-5.01 10.91c-3.6,-0.08 -6.45,-3.09 -6.37,-6.69 0.08,-3.6 3.09,-6.45 6.69,-6.37l-0.32 13.06zm92.18 49.7l-6.98 11.06 0.01 0 -2.51 -1.57 -2.59 -1.6 -2.67 -1.63 -2.73 -1.67 -5.67 -3.41 -5.87 -3.53 -2.99 -1.81 -3.01 -1.82 -3.06 -1.85 -3.07 -1.89 -3.08 -1.9 -3.09 -1.93 -3.08 -1.95 -3.07 -1.97 -3.07 -1.98 -3.05 -2.03 -3.02 -2.03 -2.99 -2.06 -2.96 -2.08 -2.91 -2.09 -2.86 -2.11 -2.81 -2.15 -2.74 -2.16 -2.68 -2.17 -2.6 -2.2 -2.53 -2.22 -2.45 -2.24 -2.34 -2.26 -2.26 -2.29 -2.15 -2.31 9.7 -8.76 1.89 2.03 2 2.03 2.12 2.04 2.21 2.04 2.33 2.04 2.42 2.04 2.5 2.03 2.58 2.04 2.65 2.01 2.72 2.01 2.79 2.01 2.84 2 2.87 1.98 2.94 1.97 2.95 1.95 2.99 1.94 3.01 1.93 3.02 1.91 3.03 1.89 3.04 1.88 3.01 1.85 3.02 1.83 3.01 1.82 2.97 1.79 5.87 3.53 5.69 3.43 2.77 1.69 2.71 1.65 2.65 1.64 2.57 1.61 0.01 0zm-0.01 0c3.05,1.92 3.97,5.96 2.05,9.01 -1.92,3.05 -5.96,3.97 -9.01,2.05l6.96 -11.06zm44.46 28.31l-6.76 11.18 0.22 0.13 -1.46 -0.81 -1.46 -0.83 -1.44 -0.83 -1.41 -0.83 -1.39 -0.82 -1.42 -0.85 -1.38 -0.85 -1.38 -0.85 -1.37 -0.86 -1.34 -0.85 -1.37 -0.87 -1.37 -0.88 -2.68 -1.74 -2.7 -1.78 -2.69 -1.79 -2.72 -1.81 -2.75 -1.83 -2.79 -1.85 -2.83 -1.88 -2.92 -1.9 -1.47 -0.95 -1.48 -0.96 -1.52 -0.97 -1.55 -0.97 6.98 -11.06 1.57 1.01 1.56 0.99 1.54 0.98 1.51 0.99 2.94 1.92 2.89 1.9 2.81 1.87 2.75 1.83 2.72 1.81 2.67 1.77 2.64 1.74 2.64 1.72 1.29 0.84 1.31 0.83 1.32 0.83 1.31 0.82 1.32 0.81 1.32 0.81 1.32 0.79 1.35 0.8 1.35 0.79 1.36 0.79 1.36 0.77 1.38 0.77 0.22 0.13zm-0.22 -0.13c3.15,1.74 4.3,5.73 2.56,8.88 -1.74,3.15 -5.73,4.3 -8.88,2.56l6.32 -11.44zm40.68 39.81l-47.22 -28.5 6.76 -11.18 47.22 28.5 0.1 0.06 -6.86 11.12zm6.76 -11.18c3.08,1.86 4.07,5.89 2.21,8.97 -1.86,3.08 -5.89,4.07 -8.97,2.21l6.76 -11.18zm186.42 110.5l-6.5 11.34 0 0 -11.88 -6.81 -11.91 -6.86 -11.93 -6.87 -11.95 -6.9 -5.98 -3.47 -5.96 -3.46 -5.97 -3.47 -5.95 -3.48 -5.95 -3.47 -5.94 -3.48 -5.93 -3.48 -5.92 -3.48 -5.9 -3.49 -5.88 -3.48 -5.87 -3.49 -5.84 -3.48 -5.83 -3.47 -5.8 -3.49 -5.77 -3.47 -5.76 -3.48 -5.73 -3.48 -5.69 -3.46 -5.66 -3.47 -5.62 -3.46 -5.61 -3.45 -5.55 -3.45 -5.52 -3.44 -5.49 -3.44 6.96 -11.06 5.45 3.42 5.5 3.42 5.53 3.43 5.57 3.45 5.62 3.44 5.64 3.45 5.67 3.46 5.69 3.46 5.74 3.46 5.77 3.47 5.78 3.47 5.81 3.47 5.82 3.48 5.85 3.47 5.88 3.48 5.88 3.47 5.9 3.48 5.91 3.46 5.94 3.48 5.93 3.47 5.95 3.46 5.95 3.47 5.96 3.46 5.96 3.45 11.93 6.9 11.93 6.87 11.89 6.84 11.88 6.81 0 0zm0 0c3.13,1.79 4.21,5.79 2.42,8.92 -1.79,3.13 -5.79,4.21 -8.92,2.42l6.5 -11.34zm247.56 121.31l-5.1 12.02 -0.19 -0.08 -7.94 -3.65 -7.93 -3.64 -7.92 -3.63 -7.9 -3.62 -15.77 -7.22 -15.71 -7.2 -7.84 -3.61 -7.83 -3.61 -7.82 -3.61 -7.81 -3.63 -7.79 -3.64 -7.78 -3.66 -7.78 -3.66 -7.77 -3.69 -7.76 -3.72 -7.75 -3.74 -7.73 -3.77 -7.73 -3.79 -7.72 -3.83 -7.72 -3.86 -7.71 -3.91 -7.7 -3.94 -7.69 -3.99 -7.69 -4.03 -7.68 -4.08 -7.67 -4.12 -7.67 -4.18 -7.67 -4.24 -7.65 -4.3 -7.66 -4.35 6.5 -11.34 7.58 4.31 7.59 4.26 7.59 4.2 7.61 4.14 7.61 4.1 7.62 4.04 7.63 4.01 7.63 3.95 7.64 3.92 7.67 3.87 7.66 3.84 7.68 3.81 7.69 3.77 7.69 3.75 7.71 3.72 7.72 3.7 7.73 3.67 7.76 3.66 7.76 3.64 7.77 3.64 7.79 3.61 7.8 3.61 7.81 3.61 7.82 3.59 15.71 7.2 15.77 7.22 7.9 3.62 7.92 3.63 7.95 3.64 7.96 3.67 -0.19 -0.08zm0.19 0.08c3.27,1.51 4.7,5.4 3.19,8.67 -1.51,3.27 -5.4,4.7 -8.67,3.19l5.48 -11.86zm124.97 67.21l-130.26 -55.27 5.1 -12.02 130.26 55.27 -4.67 12.19 -0.43 -0.17zm5.1 -12.02c3.31,1.4 4.86,5.25 3.46,8.56 -1.4,3.31 -5.25,4.86 -8.56,3.46l5.1 -12.02zm353.65 129.79l-4.2 12.38 -0.07 -0.03 -11.04 -3.9 -11.05 -3.95 -11.06 -3.99 -11.07 -4.01 -11.09 -4.04 -11.09 -4.08 -11.1 -4.09 -11.11 -4.13 -11.11 -4.13 -11.12 -4.16 -11.12 -4.16 -11.13 -4.17 -22.25 -8.38 -22.24 -8.38 -11.12 -4.17 -11.11 -4.17 -11.1 -4.17 -11.1 -4.15 -11.08 -4.14 -11.08 -4.11 -11.06 -4.09 -11.05 -4.08 -11.04 -4.03 -11.02 -4.02 -11 -3.97 -10.99 -3.95 -10.97 -3.9 -10.94 -3.86 -10.93 -3.82 -10.9 -3.76 4.24 -12.36 10.94 3.78 10.97 3.84 10.98 3.86 11.01 3.92 11.01 3.95 11.04 3.99 11.04 4.02 11.06 4.05 11.07 4.08 11.08 4.09 11.1 4.13 11.1 4.14 11.1 4.15 11.12 4.17 11.11 4.17 11.12 4.19 22.24 8.38 22.25 8.36 11.11 4.17 11.12 4.16 11.1 4.16 11.11 4.13 11.09 4.11 11.08 4.09 11.07 4.06 11.05 4.04 11.05 4.01 11.04 3.97 11.01 3.93 11 3.9 -0.07 -0.03zm0.07 0.03c3.4,1.19 5.18,4.93 3.99,8.33 -1.19,3.4 -4.93,5.18 -8.33,3.99l4.34 -12.32zm254.45 78.74l-3.34 12.64 0 0 -7.99 -2.13 -8 -2.17 -7.99 -2.18 -8.02 -2.23 -8.02 -2.24 -8.02 -2.28 -8.03 -2.3 -8.03 -2.34 -8.03 -2.35 -8.04 -2.38 -8.04 -2.4 -8.03 -2.43 -8.04 -2.44 -8.04 -2.48 -8.02 -2.48 -8.02 -2.5 -8.03 -2.52 -8.01 -2.54 -8 -2.55 -8 -2.57 -7.99 -2.57 -7.99 -2.6 -7.95 -2.6 -7.96 -2.61 -7.95 -2.63 -7.93 -2.63 -7.91 -2.63 -7.9 -2.65 -7.88 -2.65 -7.87 -2.65 -7.85 -2.65 -7.82 -2.66 4.2 -12.38 7.82 2.66 7.83 2.65 7.85 2.65 7.88 2.65 7.88 2.63 7.89 2.63 7.91 2.63 7.93 2.61 7.94 2.61 7.95 2.6 7.95 2.58 7.97 2.57 7.98 2.57 7.98 2.53 7.99 2.54 7.99 2.5 8 2.5 8 2.48 8 2.46 8 2.44 8.01 2.41 8 2.4 8 2.36 8.01 2.35 7.99 2.32 7.99 2.3 7.98 2.26 7.98 2.24 7.98 2.21 7.97 2.18 7.94 2.15 7.95 2.11 0 0zm0 0c3.49,0.92 5.57,4.5 4.65,7.99 -0.92,3.49 -4.5,5.57 -7.99,4.65l3.34 -12.64zm206.47 53.82l-3.44 12.6 0 0 -6.4 -1.73 -6.4 -1.73 -6.41 -1.73 -6.42 -1.71 -6.42 -1.7 -6.44 -1.7 -6.43 -1.7 -6.44 -1.69 -12.89 -3.36 -12.91 -3.34 -12.92 -3.33 -12.93 -3.33 -12.92 -3.32 -12.94 -3.31 -12.94 -3.32 -12.93 -3.33 -12.93 -3.33 -12.91 -3.36 -6.46 -1.68 -6.45 -1.69 -6.44 -1.69 -6.45 -1.7 3.34 -12.64 6.43 1.7 6.44 1.69 6.43 1.69 6.44 1.68 12.91 3.34 12.91 3.33 12.93 3.33 12.92 3.32 12.94 3.31 12.94 3.32 12.93 3.33 12.94 3.33 12.91 3.36 12.91 3.36 6.46 1.69 6.45 1.7 6.44 1.7 6.44 1.72 6.44 1.71 6.43 1.73 6.42 1.73 6.42 1.75 0 0zm0 0c3.47,0.94 5.52,4.55 4.58,8.02 -0.94,3.47 -4.55,5.52 -8.02,4.58l3.44 -12.6zm122.7 26.29l-5.4 11.9 2.03 0.55 -2.24 -0.26 -2.54 -0.34 -2.8 -0.44 -3.07 -0.5 -3.33 -0.57 -3.55 -0.64 -3.76 -0.7 -3.96 -0.76 -4.12 -0.81 -4.28 -0.85 -4.41 -0.9 -4.53 -0.93 -4.59 -0.98 -4.67 -0.98 -4.72 -1.01 -4.73 -1.04 -4.74 -1.03 -4.72 -1.04 -4.68 -1.04 -4.62 -1.05 -4.53 -1.03 -4.42 -1.01 -4.29 -1 -4.16 -0.97 -3.97 -0.94 -3.79 -0.91 -3.57 -0.86 -3.34 -0.82 -3.09 -0.76 -2.82 -0.72 -2.52 -0.65 -2.22 -0.6 3.44 -12.6 2.1 0.56 2.44 0.63 2.76 0.7 3.03 0.76 3.3 0.8 3.55 0.86 3.75 0.89 3.95 0.94 4.12 0.97 4.27 0.98 4.4 1.01 4.51 1.03 4.58 1.03 4.66 1.04 4.68 1.04 4.72 1.03 4.71 1.02 4.68 1.01 4.65 0.98 4.57 0.96 4.47 0.93 4.37 0.88 4.24 0.85 4.08 0.81 3.88 0.74 3.7 0.68 3.47 0.64 3.21 0.55 2.95 0.48 2.64 0.4 2.3 0.32 1.94 0.22 2.03 0.55zm-2.03 -0.55c3.58,0.37 6.2,3.59 5.83,7.17 -0.37,3.58 -3.59,6.2 -7.17,5.83l1.34 -13zm362.07 62.26l-3.22 12.66 0.64 0.13 -3.69 -0.54 -5.11 -0.73 -6.43 -0.9 -7.64 -1.07 -18.6 -2.59 -22.35 -3.15 -12.37 -1.75 -13.05 -1.86 -13.62 -1.96 -14.1 -2.06 -14.52 -2.13 -14.81 -2.2 -15.02 -2.27 -15.15 -2.31 -15.2 -2.37 -15.13 -2.39 -14.98 -2.42 -14.75 -2.44 -14.43 -2.44 -13.99 -2.45 -13.5 -2.42 -12.89 -2.41 -12.21 -2.38 -11.43 -2.34 -10.57 -2.3 -9.63 -2.24 -8.61 -2.18 -7.51 -2.13 -6.37 -2.09 -5.23 -2.08 5.4 -11.9 4.23 1.68 5.77 1.89 7.09 2.01 8.31 2.1 9.41 2.2 10.41 2.26 11.29 2.3 12.09 2.36 12.81 2.39 13.42 2.42 13.93 2.43 14.37 2.44 14.69 2.42 14.94 2.42 15.09 2.39 15.16 2.35 15.13 2.31 15 2.27 14.79 2.2 14.48 2.13 14.1 2.04 13.6 1.96 13.03 1.86 12.35 1.75 22.35 3.15 18.58 2.59 7.66 1.07 6.43 0.9 5.15 0.73 3.77 0.56 0.64 0.13zm-0.64 -0.13c3.56,0.53 6.02,3.87 5.49,7.43 -0.53,3.56 -3.87,6.02 -7.43,5.49l1.94 -12.92zm142.16 14.02l-0.5 13.06 -0.72 -0.07 -3.94 -0.55 -4.07 -0.52 -4.15 -0.48 -4.25 -0.44 -4.35 -0.4 -4.43 -0.38 -4.49 -0.34 -4.56 -0.32 -4.62 -0.31 -4.66 -0.29 -4.71 -0.27 -4.74 -0.27 -9.55 -0.53 -9.59 -0.54 -4.79 -0.28 -4.79 -0.29 -4.78 -0.32 -4.73 -0.34 -4.7 -0.37 -4.67 -0.39 -4.62 -0.44 -4.57 -0.46 -4.5 -0.52 -4.43 -0.56 -4.37 -0.62 -4.28 -0.66 -4.19 -0.73 -4.11 -0.8 -3.99 -0.86 -3.9 -0.94 3.22 -12.66 3.58 0.86 3.71 0.8 3.85 0.74 3.95 0.69 4.08 0.64 4.17 0.58 4.27 0.54 4.36 0.5 4.43 0.46 4.5 0.42 4.57 0.39 4.62 0.35 4.67 0.34 4.7 0.32 4.73 0.29 4.75 0.28 9.57 0.54 9.55 0.53 4.76 0.27 4.75 0.27 4.72 0.29 4.66 0.31 4.64 0.32 4.59 0.36 4.53 0.38 4.45 0.42 4.41 0.44 4.31 0.5 4.23 0.54 4.14 0.59 -0.72 -0.07zm0.72 0.07c3.56,0.53 6.02,3.87 5.49,7.43 -0.53,3.56 -3.87,6.02 -7.43,5.49l1.94 -12.92zm173.43 19.61l-174.65 -6.62 0.5 -13.06 174.65 6.62 -0.4 13.06 -0.1 0zm0.5 -13.06c3.6,0.13 6.41,3.18 6.28,6.78 -0.13,3.6 -3.18,6.41 -6.78,6.28l0.5 -13.06zm414.76 -33.69l3.1 12.7 -0.28 0.06 -13.87 2.71 -13.63 2.58 -13.44 2.46 -13.25 2.34 -13.09 2.22 -12.92 2.11 -12.8 1.99 -12.67 1.88 -12.57 1.76 -12.48 1.66 -12.42 1.55 -12.36 1.44 -12.33 1.34 -12.31 1.23 -12.32 1.14 -12.32 1.03 -12.36 0.94 -12.41 0.84 -12.47 0.75 -12.56 0.66 -12.67 0.57 -12.78 0.47 -12.9 0.39 -13.08 0.31 -13.23 0.22 -13.41 0.14 -13.63 0.07 -13.84 -0.02 -14.07 -0.09 -14.33 -0.16 -14.6 -0.24 -14.89 -0.3 0.3 -13.06 14.83 0.3 14.54 0.24 14.27 0.16 14.01 0.09 13.76 0.02 13.55 -0.07 13.33 -0.14 13.15 -0.22 12.98 -0.31 12.82 -0.39 12.68 -0.47 12.57 -0.57 12.46 -0.64 12.37 -0.75 12.31 -0.84 12.26 -0.92 12.22 -1.03 12.2 -1.12 12.21 -1.23 12.23 -1.32 12.26 -1.44 12.32 -1.53 12.38 -1.64 12.47 -1.76 12.57 -1.86 12.7 -1.97 12.84 -2.09 12.99 -2.22 13.17 -2.32 13.36 -2.44 13.57 -2.58 13.79 -2.69 -0.28 0.06zm0.28 -0.06c3.54,-0.7 6.98,1.6 7.68,5.14 0.7,3.54 -1.6,6.98 -5.14,7.68l-2.54 -12.82zm195.33 -75.67l3.58 12.56 2.25 -1.14 -4.71 3.56 -4.96 3.48 -5.18 3.39 -5.39 3.3 -5.59 3.24 -5.77 3.15 -5.95 3.07 -6.09 3 -6.24 2.93 -6.36 2.84 -6.46 2.78 -6.57 2.72 -6.66 2.63 -6.71 2.57 -6.79 2.49 -6.8 2.43 -6.84 2.36 -6.84 2.28 -6.84 2.21 -6.82 2.16 -6.78 2.07 -6.73 2.02 -6.67 1.94 -6.59 1.87 -6.49 1.81 -6.38 1.73 -6.26 1.67 -6.12 1.59 -5.95 1.54 -5.8 1.47 -5.6 1.39 -5.41 1.33 -3.1 -12.7 5.37 -1.31 5.56 -1.39 5.74 -1.45 5.91 -1.52 6.06 -1.59 6.2 -1.65 6.32 -1.71 6.41 -1.79 6.51 -1.85 6.59 -1.92 6.65 -1.98 6.68 -2.05 6.72 -2.12 6.74 -2.19 6.72 -2.24 6.72 -2.32 6.68 -2.37 6.63 -2.45 6.57 -2.51 6.5 -2.57 6.39 -2.64 6.3 -2.7 6.16 -2.76 6.02 -2.83 5.87 -2.88 5.69 -2.95 5.51 -3.01 5.31 -3.06 5.07 -3.12 4.86 -3.17 4.58 -3.22 4.33 -3.28 2.25 -1.14zm-2.25 1.14c2.83,-2.23 6.95,-1.73 9.18,1.1 2.23,2.83 1.73,6.95 -1.1,9.18l-8.08 -10.28zm57.64 -42.03l8.64 9.8 0 0 -2.4 2.12 -2.79 2.48 -1.53 1.35 -1.61 1.42 -1.68 1.47 -1.75 1.53 -1.82 1.56 -1.85 1.59 -1.93 1.65 -1.97 1.65 -2 1.67 -2.04 1.68 -2.07 1.66 -2.08 1.67 -2.11 1.66 -2.12 1.62 -2.12 1.62 -2.14 1.57 -2.12 1.52 -2.11 1.48 -2.11 1.43 -2.1 1.37 -2.08 1.29 -2.04 1.22 -2.03 1.14 -2 1.05 -1.99 0.97 -1.97 0.85 -1.94 0.74 -1.95 0.62 -3.58 -12.56 1.19 -0.38 1.34 -0.52 1.45 -0.63 1.55 -0.75 1.66 -0.87 1.71 -0.96 1.8 -1.08 1.86 -1.15 1.88 -1.23 1.93 -1.31 1.97 -1.38 2 -1.44 2 -1.47 2.02 -1.52 2.02 -1.56 2.01 -1.58 2.02 -1.61 1.99 -1.62 1.98 -1.62 1.94 -1.61 1.91 -1.61 1.87 -1.59 1.83 -1.57 1.78 -1.54 1.71 -1.49 1.66 -1.45 1.59 -1.4 1.51 -1.33 2.79 -2.48 2.42 -2.14 0 0zm0 0c2.7,-2.38 6.84,-2.12 9.22,0.58 2.38,2.7 2.12,6.84 -0.58,9.22l-8.64 -9.8zm45.41 -54.96l4.84 12.14 4.03 -5.01 -0.45 1.88 -0.63 1.73 -0.77 1.7 -0.9 1.69 -1 1.73 -1.13 1.82 -1.25 1.88 -1.33 1.91 -1.42 1.96 -1.53 2.05 -1.6 2.07 -1.64 2.09 -1.72 2.14 -1.77 2.16 -1.8 2.15 -1.82 2.15 -1.85 2.15 -1.85 2.12 -1.86 2.1 -1.83 2.04 -1.81 2.02 -1.79 1.94 -1.73 1.87 -1.68 1.8 -1.62 1.71 -1.56 1.62 -1.46 1.49 -1.36 1.38 -1.28 1.27 -1.17 1.14 -1.07 1 -0.96 0.87 -8.64 -9.8 0.74 -0.67 0.89 -0.84 1.05 -1.02 1.18 -1.17 1.3 -1.32 1.4 -1.43 1.48 -1.54 1.56 -1.65 1.64 -1.74 1.69 -1.83 1.73 -1.88 1.75 -1.94 1.79 -2 1.8 -2.04 1.79 -2.06 1.79 -2.07 1.76 -2.09 1.74 -2.07 1.69 -2.06 1.62 -2.02 1.58 -2.01 1.5 -1.93 1.39 -1.87 1.3 -1.82 1.21 -1.71 1.05 -1.58 0.91 -1.46 0.78 -1.35 0.6 -1.15 0.41 -0.88 0.21 -0.59 0.05 -0.16 4.03 -5.01zm-4.03 5.01c0.58,-3.56 3.95,-5.97 7.51,-5.39 3.56,0.58 5.97,3.95 5.39,7.51l-12.9 -2.12z"/>
    </g>
    <path class="fil3" d="M7097.25 221.32c92.77,-41.3 127.73,-39.43 226.31,-44.21 47.58,-2.31 108.44,1.35 153.04,-12.42 -89.81,-52.99 -458.8,-23.49 -588.72,12.67 -157.85,43.94 -303.69,150.84 -302.69,318.67 0.38,63.06 34.76,142.34 70.81,194.4 93.88,135.48 202.13,218.41 329.87,319.31 110.36,87.16 343.21,232.72 475.1,288.08l101.51 42.62c9.31,3.91 24.98,6.97 32.3,13.31 2.43,2.82 12.08,97.06 19.71,164.08 9.96,87.33 24.1,178.76 40.39,264.33 16.27,85.43 42.08,231.23 66.87,315.42 23.13,78.53 38.68,139.44 67.01,216.21 23.4,63.45 77.53,202.73 149.32,212.19 79.89,10.52 129.87,-109.67 152.29,-168.4 23.1,-60.57 38.66,-155.13 53.94,-223.2 12.1,-53.84 62.74,-246.16 138.42,-168.5 38.24,39.25 64.75,112.81 83.32,181.14 37.5,137.94 56.72,279.4 107.61,413.65l44.7 117.9c23.37,61.64 88.76,172.48 171.7,136.8 32.72,-14.09 64.6,-46.39 86.2,-75.9 57.69,-78.78 96.69,-156.1 141.95,-239.92 19.12,-35.4 115.32,-264.06 120.67,-279.8 4.68,-13.75 96.57,-249.08 109.01,-283.44 8.49,-23.44 18.38,-76.45 39.2,-109.95 53.04,-4.45 142.78,-3.3 226.81,-5.38l87.95 -2.16c16.45,-0.41 91.41,-8.48 106.54,-12.08 -37.8,-10.2 -165.11,-22.99 -198.88,-28.7 -129.78,-21.96 -257.35,-34.18 -386.92,-56.7 -68.28,-11.87 -158.68,-32.13 -223.82,-51.94l-417.27 -126.85c-134,-40.74 -263.34,-95.86 -391.54,-152.46 -123.41,-54.5 -245.99,-112.13 -364,-177.27 -98.95,-54.61 -196.66,-108.51 -286.46,-177.57l-131.75 -101.29c-66.42,-51.07 -118.6,-110.11 -173.6,-173.65 -52.71,-60.9 -74.18,-107.59 -100.49,-168.31 -15.74,-36.33 -32.28,-76.62 -14.62,-160.09 7.98,-37.69 10.53,-44.18 28.04,-74.67 37.74,-65.7 79.5,-104.45 150.18,-135.91z"/>
    <g>
     <path class="fil2" d="M7323.22 171.24l0.58 11.86 0 0 -9.07 0.43 -8.72 0.4 -8.38 0.38 -8.08 0.36 -7.77 0.37 -7.52 0.37 -7.26 0.39 -7.03 0.4 -6.84 0.45 -6.65 0.49 -6.5 0.53 -6.35 0.6 -6.25 0.67 -6.15 0.74 -6.08 0.82 -6.03 0.93 -6.02 1.03 -6.02 1.14 -6.04 1.27 -6.09 1.39 -6.15 1.54 -6.27 1.7 -6.39 1.85 -6.51 2.01 -6.69 2.2 -6.88 2.39 -7.08 2.59 -7.32 2.8 -7.58 3.01 -7.85 3.24 -8.16 3.48 -8.48 3.72 -4.82 -10.84 8.58 -3.78 8.28 -3.52 7.99 -3.3 7.72 -3.07 7.48 -2.86 7.26 -2.65 7.06 -2.45 6.87 -2.26 6.73 -2.09 6.59 -1.91 6.47 -1.74 6.39 -1.6 6.31 -1.45 6.26 -1.31 6.24 -1.18 6.22 -1.07 6.23 -0.95 6.28 -0.86 6.31 -0.76 6.41 -0.69 6.49 -0.6 6.62 -0.55 6.75 -0.49 6.92 -0.45 7.11 -0.42 7.32 -0.39 7.54 -0.37 7.81 -0.37 8.08 -0.36 8.38 -0.38 8.7 -0.4 9.05 -0.43 0 0zm0 0c3.27,-0.16 6.06,2.37 6.22,5.64 0.16,3.27 -2.37,6.06 -5.64,6.22l-0.58 -11.86zm150.32 -1.4l6.04 -10.22 -1.27 10.78 -4.38 1.29 -4.47 1.19 -4.54 1.08 -4.61 0.99 -4.68 0.89 -4.73 0.82 -4.79 0.72 -4.83 0.67 -4.89 0.59 -4.92 0.52 -4.96 0.46 -4.99 0.41 -5.01 0.35 -5.03 0.31 -5.04 0.26 -5.05 0.23 -5.05 0.19 -5.06 0.16 -5.04 0.13 -5.03 0.12 -5.02 0.1 -4.99 0.08 -4.96 0.08 -4.93 0.08 -4.9 0.07 -4.84 0.08 -4.79 0.09 -4.73 0.1 -4.67 0.13 -4.61 0.14 -4.53 0.17 -4.45 0.2 -0.58 -11.86 4.55 -0.2 4.61 -0.17 4.67 -0.14 4.73 -0.13 4.77 -0.1 4.83 -0.09 4.86 -0.08 4.9 -0.07 4.91 -0.08 4.96 -0.08 4.97 -0.08 4.98 -0.1 4.99 -0.12 5 -0.13 4.98 -0.16 4.97 -0.19 4.97 -0.23 4.96 -0.26 4.91 -0.29 4.89 -0.35 4.85 -0.39 4.82 -0.46 4.76 -0.5 4.71 -0.57 4.65 -0.63 4.59 -0.7 4.51 -0.78 4.44 -0.85 4.35 -0.93 4.26 -1.02 4.17 -1.11 4.08 -1.19 -1.27 10.78zm1.27 -10.78c3.13,-0.96 6.46,0.79 7.42,3.92 0.96,3.13 -0.79,6.46 -3.92,7.42l-3.5 -11.34zm-585.38 24.07l-3.18 -11.44 0 0 13.03 -3.41 14.31 -3.34 15.5 -3.28 16.6 -3.19 17.6 -3.08 18.53 -2.98 19.35 -2.86 20.08 -2.71 20.72 -2.56 21.27 -2.4 21.71 -2.22 22.08 -2.03 22.33 -1.82 22.5 -1.6 22.57 -1.38 22.56 -1.11 22.45 -0.86 22.23 -0.58 21.93 -0.3 21.54 0.01 21.05 0.34 20.47 0.65 19.79 1.02 19.03 1.37 18.17 1.74 17.22 2.14 16.18 2.56 15.07 2.98 13.87 3.43 12.58 3.92 11.24 4.45 9.81 5.03 -6.04 10.22 -8.63 -4.43 -10.3 -4.07 -11.84 -3.68 -13.25 -3.29 -14.57 -2.88 -15.78 -2.48 -16.86 -2.1 -17.87 -1.72 -18.75 -1.35 -19.57 -1 -20.25 -0.65 -20.87 -0.32 -21.36 -0.01 -21.77 0.28 -22.09 0.58 -22.31 0.86 -22.42 1.11 -22.45 1.36 -22.38 1.6 -22.21 1.8 -21.96 2.03 -21.59 2.2 -21.13 2.38 -20.6 2.56 -19.94 2.69 -19.21 2.84 -18.37 2.94 -17.42 3.06 -16.4 3.15 -15.26 3.22 -14.05 3.28 -12.69 3.33 0 0zm0 0c-3.15,0.87 -6.44,-0.98 -7.31,-4.13 -0.87,-3.15 0.98,-6.44 4.13,-7.31l3.18 11.44zm-298.35 312.91l-11.88 0.08 0 0 0.34 -15.89 1.2 -15.53 2.02 -15.17 2.83 -14.8 3.6 -14.45 4.37 -14.08 5.08 -13.72 5.8 -13.33 6.46 -12.96 7.12 -12.6 7.74 -12.21 8.33 -11.83 8.9 -11.47 9.44 -11.08 9.96 -10.7 10.44 -10.33 10.93 -9.95 11.35 -9.58 11.77 -9.19 12.16 -8.83 12.51 -8.44 12.86 -8.09 13.18 -7.69 13.47 -7.33 13.72 -6.95 13.97 -6.58 14.19 -6.22 14.39 -5.83 14.54 -5.46 14.69 -5.09 14.81 -4.73 14.9 -4.34 3.18 11.44 -14.62 4.26 -14.53 4.63 -14.39 4.99 -14.26 5.36 -14.09 5.71 -13.89 6.08 -13.67 6.44 -13.42 6.79 -13.15 7.17 -12.86 7.51 -12.54 7.87 -12.19 8.22 -11.82 8.59 -11.43 8.93 -11.01 9.28 -10.57 9.65 -10.1 9.97 -9.62 10.34 -9.1 10.68 -8.56 11.03 -8.01 11.37 -7.42 11.71 -6.82 12.06 -6.18 12.42 -5.54 12.75 -4.86 13.1 -4.17 13.46 -3.44 13.79 -2.71 14.16 -1.94 14.51 -1.14 14.87 -0.32 15.23 0 0zm0 0c0.02,3.28 -2.62,5.96 -5.9,5.98 -3.28,0.02 -5.96,-2.62 -5.98,-5.9l11.88 -0.08zm69.77 191.06l-9.76 6.76 0 0 -3.42 -5.04 -3.41 -5.19 -3.39 -5.32 -3.36 -5.47 -3.33 -5.6 -3.27 -5.71 -3.24 -5.82 -3.18 -5.93 -3.12 -6.03 -3.06 -6.11 -2.98 -6.19 -2.92 -6.27 -2.83 -6.34 -2.74 -6.39 -2.65 -6.43 -2.56 -6.49 -2.44 -6.52 -2.34 -6.54 -2.22 -6.57 -2.09 -6.58 -1.97 -6.58 -1.83 -6.59 -1.69 -6.57 -1.54 -6.55 -1.4 -6.53 -1.22 -6.5 -1.07 -6.45 -0.9 -6.42 -0.71 -6.35 -0.53 -6.3 -0.34 -6.22 -0.14 -6.15 11.88 -0.08 0.12 5.77 0.32 5.86 0.51 5.96 0.67 6.03 0.86 6.1 1.01 6.19 1.18 6.22 1.34 6.27 1.48 6.31 1.63 6.35 1.77 6.35 1.91 6.38 2.03 6.38 2.16 6.37 2.26 6.36 2.38 6.34 2.48 6.31 2.59 6.27 2.68 6.23 2.75 6.18 2.84 6.11 2.92 6.03 2.98 5.97 3.04 5.87 3.1 5.77 3.16 5.68 3.19 5.57 3.23 5.44 3.26 5.31 3.29 5.18 3.31 5.03 3.32 4.88 0 0zm0 0c1.86,2.69 1.19,6.4 -1.5,8.26 -2.69,1.86 -6.4,1.19 -8.26,-1.5l9.76 -6.76zm328.66 318.03l-7.36 9.32 0 0 -11.92 -9.41 -11.81 -9.32 -11.69 -9.23 -11.59 -9.18 -11.48 -9.13 -11.38 -9.09 -11.27 -9.06 -11.17 -9.05 -11.06 -9.05 -10.96 -9.06 -10.86 -9.09 -10.75 -9.13 -10.65 -9.19 -10.56 -9.24 -10.46 -9.33 -10.36 -9.42 -10.27 -9.52 -10.17 -9.65 -10.07 -9.76 -9.98 -9.92 -9.88 -10.07 -9.8 -10.24 -9.69 -10.42 -9.62 -10.61 -9.51 -10.82 -9.42 -11.04 -9.34 -11.28 -9.25 -11.52 -9.15 -11.77 -9.08 -12.05 -8.99 -12.33 -8.89 -12.63 9.76 -6.76 8.79 12.47 8.87 12.19 8.96 11.89 9.05 11.63 9.13 11.38 9.22 11.14 9.32 10.9 9.39 10.7 9.5 10.49 9.59 10.3 9.68 10.12 9.78 9.97 9.88 9.8 9.97 9.68 10.07 9.55 10.17 9.44 10.28 9.34 10.38 9.25 10.48 9.18 10.59 9.13 10.69 9.07 10.8 9.05 10.9 9.02 11.02 9.01 11.13 9.01 11.23 9.04 11.36 9.07 11.46 9.11 11.57 9.16 11.69 9.23 11.81 9.32 11.92 9.41 0 0zm0 0c2.57,2.03 3.01,5.77 0.98,8.34 -2.03,2.57 -5.77,3.01 -8.34,0.98l7.36 -9.32zm473.73 287.27l-4.6 10.94 0 0 -12.74 -5.49 -13.3 -5.99 -13.78 -6.46 -14.26 -6.9 -14.67 -7.32 -15.05 -7.71 -15.39 -8.08 -15.7 -8.41 -15.96 -8.72 -16.18 -9 -16.35 -9.27 -16.5 -9.48 -16.59 -9.69 -16.65 -9.87 -16.67 -10.01 -16.65 -10.13 -16.59 -10.23 -16.48 -10.28 -16.33 -10.33 -16.14 -10.34 -15.93 -10.33 -15.65 -10.28 -15.35 -10.22 -15 -10.11 -14.62 -10 -14.18 -9.85 -13.71 -9.66 -13.2 -9.46 -12.65 -9.24 -12.06 -8.98 -11.43 -8.69 -10.76 -8.38 7.36 -9.32 10.64 8.3 11.33 8.61 11.96 8.9 12.57 9.18 13.12 9.4 13.63 9.62 14.12 9.79 14.54 9.96 14.94 10.07 15.29 10.18 15.59 10.24 15.87 10.29 16.1 10.3 16.27 10.29 16.42 10.26 16.53 10.19 16.59 10.09 16.61 9.97 16.59 9.83 16.53 9.65 16.42 9.46 16.29 9.21 16.1 8.96 15.88 8.68 15.6 8.37 15.29 8.02 14.95 7.65 14.55 7.26 14.12 6.84 13.64 6.4 13.12 5.91 12.56 5.41 0 0zm0 0c3.02,1.27 4.44,4.75 3.17,7.77 -1.27,3.02 -4.75,4.44 -7.77,3.17l4.6 -10.94zm96.9 53.56l-101.5 -42.62 4.6 -10.94 101.5 42.62 -4.6 10.94zm4.6 -10.94c3.02,1.27 4.44,4.75 3.17,7.77 -1.27,3.02 -4.75,4.44 -7.77,3.17l4.6 -10.94zm34.51 14.91l-9 7.74 0.62 0.62 -0.49 -0.4 -0.56 -0.42 -0.6 -0.41 -0.67 -0.42 -0.73 -0.43 -0.74 -0.41 -0.8 -0.4 -0.87 -0.42 -0.93 -0.42 -0.9 -0.4 -0.97 -0.4 -1.01 -0.4 -0.98 -0.37 -1.06 -0.39 -1.08 -0.39 -1.06 -0.36 -1.08 -0.37 -1.11 -0.36 -1.11 -0.36 -1.11 -0.36 -2.23 -0.72 -2.2 -0.7 -1.12 -0.36 -1.09 -0.36 -1.09 -0.37 -1.07 -0.38 -1.03 -0.37 -1.03 -0.38 -1 -0.39 -1.01 -0.41 4.6 -10.94 0.77 0.31 0.86 0.33 0.89 0.34 0.93 0.33 0.97 0.34 0.97 0.33 1.03 0.34 1.04 0.34 2.2 0.7 2.25 0.72 1.13 0.36 1.15 0.38 1.15 0.38 1.18 0.39 1.18 0.42 1.14 0.41 1.16 0.41 1.18 0.45 1.13 0.46 1.15 0.46 1.14 0.5 1.09 0.5 1.09 0.52 1.1 0.56 1.08 0.59 1.03 0.61 1.01 0.64 1 0.69 0.96 0.72 0.93 0.76 0.62 0.62zm-0.62 -0.62c2.47,2.14 2.75,5.9 0.61,8.37 -2.14,2.47 -5.9,2.75 -8.37,0.61l7.76 -8.98zm21.72 167.9l-11.8 1.34 0 0 -1.45 -12.87 -1.49 -13.33 -1.5 -13.61 -1.52 -13.73 -1.5 -13.67 -1.49 -13.43 -1.45 -13.03 -1.4 -12.45 -0.68 -5.95 -0.67 -5.73 -0.63 -5.52 -0.63 -5.24 -0.6 -4.98 -0.58 -4.68 -0.55 -4.35 -0.51 -4.01 -0.5 -3.63 -0.46 -3.24 -0.42 -2.83 -0.39 -2.36 -0.35 -1.87 -0.27 -1.31 -0.12 -0.48 0.86 1.41 9 -7.74 1.36 2.47 0.46 1.6 0.37 1.77 0.39 2.13 0.41 2.56 0.44 2.93 0.48 3.32 0.5 3.71 0.53 4.07 0.55 4.39 0.58 4.7 0.6 5 0.63 5.28 0.65 5.52 0.67 5.75 0.68 5.97 1.4 12.47 1.45 13.03 1.49 13.45 1.5 13.67 1.52 13.73 1.5 13.61 1.49 13.31 1.45 12.85 0 0zm0 0c0.37,3.25 -1.98,6.2 -5.23,6.57 -3.25,0.37 -6.2,-1.98 -6.57,-5.23l11.8 -1.34zm40.32 263.88l-11.66 2.22 0 0 -1.52 -8.05 -1.52 -8.09 -1.49 -8.11 -1.48 -8.14 -1.47 -8.18 -1.46 -8.2 -1.44 -8.21 -1.42 -8.25 -1.41 -8.26 -1.39 -8.28 -1.38 -8.3 -1.36 -8.3 -1.34 -8.32 -1.33 -8.33 -1.3 -8.35 -1.3 -8.35 -1.27 -8.35 -1.25 -8.36 -1.23 -8.36 -1.21 -8.35 -1.2 -8.36 -1.17 -8.35 -1.15 -8.36 -1.13 -8.33 -1.1 -8.34 -1.1 -8.32 -1.06 -8.3 -1.04 -8.3 -1.02 -8.27 -0.99 -8.26 -0.98 -8.23 -0.95 -8.22 11.8 -1.34 0.95 8.18 0.96 8.21 0.99 8.22 1.02 8.25 1.04 8.26 1.06 8.28 1.08 8.3 1.1 8.3 1.13 8.31 1.15 8.32 1.17 8.33 1.18 8.32 1.21 8.33 1.23 8.34 1.25 8.32 1.27 8.33 1.28 8.33 1.3 8.31 1.33 8.31 1.34 8.3 1.36 8.28 1.36 8.26 1.39 8.26 1.41 8.24 1.42 8.21 1.44 8.19 1.44 8.18 1.47 8.14 1.48 8.12 1.49 8.09 1.5 8.05 1.52 8.03 0 0zm0 0c0.61,3.21 -1.51,6.33 -4.72,6.94 -3.21,0.61 -6.33,-1.51 -6.94,-4.72l11.66 -2.22zm66.73 314.86l-11.38 3.36 0 0 -2.35 -8.14 -2.35 -8.46 -2.34 -8.77 -2.34 -9.07 -2.34 -9.32 -2.34 -9.58 -2.33 -9.8 -2.32 -10 -2.31 -10.19 -2.31 -10.33 -2.28 -10.48 -2.27 -10.59 -2.25 -10.67 -2.23 -10.75 -2.22 -10.8 -2.18 -10.82 -2.16 -10.82 -2.13 -10.8 -2.12 -10.76 -2.07 -10.69 -2.04 -10.61 -2 -10.5 -1.97 -10.37 -1.93 -10.22 -3.74 -19.87 -3.56 -19 -1.71 -9.1 -1.66 -8.82 -1.61 -8.52 -1.55 -8.17 11.66 -2.22 1.55 8.19 1.61 8.52 1.66 8.82 1.71 9.12 3.56 18.98 3.74 19.87 1.93 10.2 1.97 10.37 2 10.48 2.04 10.59 2.07 10.67 2.1 10.74 2.13 10.78 2.16 10.8 2.18 10.8 2.2 10.76 2.23 10.71 2.25 10.65 2.25 10.55 2.28 10.42 2.29 10.29 2.29 10.13 2.32 9.94 2.31 9.74 2.32 9.5 2.32 9.26 2.32 8.97 2.32 8.67 2.31 8.36 2.31 8 0 0zm0 0c0.92,3.14 -0.87,6.45 -4.01,7.37 -3.14,0.92 -6.45,-0.87 -7.37,-4.01l11.38 -3.36zm66.89 215.83l-11.14 4.1 0 0 -2.63 -7.17 -2.56 -7.1 -2.49 -7.01 -2.42 -6.94 -2.37 -6.87 -2.3 -6.8 -2.26 -6.75 -2.21 -6.69 -2.16 -6.66 -2.12 -6.61 -2.08 -6.58 -2.05 -6.56 -2.01 -6.53 -2 -6.52 -1.96 -6.51 -1.95 -6.51 -1.93 -6.51 -1.92 -6.52 -1.92 -6.54 -1.9 -6.56 -3.81 -13.21 -3.84 -13.36 -3.9 -13.58 -3.99 -13.84 -2.04 -7.04 -2.07 -7.11 -2.1 -7.21 -2.14 -7.3 11.38 -3.36 2.16 7.32 2.1 7.23 2.07 7.13 2.04 7.04 3.99 13.86 3.9 13.58 3.84 13.36 3.81 13.19 1.9 6.54 1.9 6.52 1.92 6.5 1.93 6.49 1.93 6.47 1.96 6.47 1.98 6.5 2.01 6.49 2.03 6.52 2.08 6.54 2.1 6.57 2.14 6.6 2.19 6.65 2.24 6.69 2.3 6.76 2.35 6.83 2.4 6.88 2.47 6.95 2.54 7.04 2.61 7.13 0 0zm0 0c1.13,3.07 -0.45,6.49 -3.52,7.62 -3.07,1.13 -6.49,-0.45 -7.62,-3.52l11.14 -4.1zm144.52 208.36l-1.54 11.76 -0.01 0 -7.31 -1.37 -7.15 -2.16 -6.99 -2.88 -6.8 -3.56 -6.62 -4.17 -6.46 -4.73 -6.27 -5.26 -6.12 -5.75 -5.97 -6.2 -5.81 -6.6 -5.65 -6.98 -5.5 -7.29 -5.35 -7.6 -5.2 -7.86 -5.06 -8.08 -4.91 -8.26 -4.76 -8.42 -4.6 -8.54 -4.45 -8.59 -4.3 -8.65 -4.14 -8.64 -3.98 -8.6 -3.83 -8.53 -3.66 -8.43 -3.51 -8.27 -3.33 -8.09 -3.16 -7.86 -3 -7.6 -2.82 -7.31 -2.64 -6.97 -2.48 -6.6 -2.29 -6.18 11.14 -4.1 2.27 6.14 2.46 6.56 2.62 6.91 2.8 7.23 2.96 7.52 3.14 7.78 3.29 7.99 3.45 8.17 3.62 8.31 3.77 8.41 3.92 8.46 4.06 8.5 4.22 8.47 4.37 8.43 4.5 8.34 4.64 8.2 4.77 8.04 4.9 7.84 5.02 7.58 5.15 7.3 5.26 6.99 5.37 6.62 5.47 6.22 5.57 5.8 5.66 5.31 5.73 4.8 5.8 4.27 5.86 3.69 5.9 3.08 5.95 2.46 5.99 1.8 6.05 1.15 -0.01 0zm0.01 0c3.24,0.43 5.53,3.42 5.1,6.66 -0.43,3.24 -3.42,5.53 -6.66,5.1l1.56 -11.76zm145.95 -164.64l11.1 4.24 0 0 -2.2 5.7 -2.36 6.05 -2.51 6.33 -2.69 6.6 -2.86 6.82 -3.02 7.01 -3.19 7.17 -3.36 7.29 -3.53 7.38 -3.7 7.42 -3.87 7.45 -4.05 7.42 -4.21 7.38 -4.4 7.28 -4.57 7.16 -4.76 7 -4.93 6.81 -5.13 6.59 -5.31 6.33 -5.51 6.02 -5.7 5.71 -5.92 5.32 -6.11 4.92 -6.34 4.47 -6.55 3.99 -6.78 3.46 -6.99 2.88 -7.22 2.26 -7.42 1.6 -7.63 0.88 -7.82 0.13 -7.97 -0.66 1.54 -11.76 6.83 0.56 6.64 -0.11 6.47 -0.76 6.34 -1.36 6.2 -1.94 6.07 -2.5 5.94 -3.04 5.83 -3.55 5.7 -4.03 5.57 -4.48 5.44 -4.9 5.3 -5.29 5.15 -5.64 5.01 -5.97 4.87 -6.25 4.71 -6.51 4.56 -6.72 4.41 -6.88 4.24 -7.04 4.09 -7.14 3.93 -7.22 3.77 -7.25 3.62 -7.26 3.45 -7.2 3.28 -7.15 3.13 -7.03 2.98 -6.89 2.8 -6.72 2.65 -6.5 2.49 -6.25 2.34 -5.97 2.16 -5.66 0 0zm0 0c1.17,-3.06 4.61,-4.6 7.67,-3.43 3.06,1.17 4.6,4.61 3.43,7.67l-11.1 -4.24zm53.7 -222.37l11.58 2.6 0 0 -1.42 6.43 -1.44 6.58 -1.43 6.71 -1.45 6.85 -1.45 6.95 -1.46 7.07 -1.47 7.14 -1.48 7.24 -1.5 7.3 -1.51 7.35 -1.52 7.41 -1.54 7.45 -1.55 7.46 -1.58 7.49 -1.61 7.48 -1.61 7.48 -1.65 7.45 -1.67 7.43 -1.7 7.38 -1.73 7.34 -1.74 7.27 -1.79 7.2 -1.81 7.11 -1.86 7.02 -1.88 6.91 -1.93 6.79 -1.95 6.68 -2.01 6.52 -2.04 6.39 -2.09 6.22 -2.14 6.05 -2.17 5.88 -11.1 -4.24 2.11 -5.68 2.08 -5.87 2.03 -6.06 2 -6.23 1.95 -6.4 1.93 -6.54 1.89 -6.69 1.86 -6.81 1.82 -6.92 1.79 -7.03 1.77 -7.12 1.74 -7.19 1.71 -7.28 1.68 -7.34 1.67 -7.37 1.63 -7.41 1.61 -7.44 1.59 -7.46 1.58 -7.45 1.55 -7.44 1.54 -7.43 1.52 -7.39 1.51 -7.35 1.5 -7.3 1.48 -7.24 1.47 -7.16 1.46 -7.07 1.45 -6.99 1.45 -6.87 1.45 -6.75 1.44 -6.62 1.44 -6.49 0 0zm0 0c0.71,-3.19 3.9,-5.2 7.09,-4.49 3.19,0.71 5.2,3.9 4.49,7.09l-11.58 -2.6zm148.46 -171.35l-8.5 8.28 0 0 -6.55 -6.07 -6.26 -4.55 -5.92 -3.13 -5.59 -1.88 -5.32 -0.77 -5.14 0.24 -5.07 1.19 -5.07 2.12 -5.08 3.06 -5.07 3.96 -5.02 4.82 -4.94 5.63 -4.84 6.34 -4.71 6.99 -4.56 7.56 -4.41 8.06 -4.26 8.46 -4.07 8.78 -3.9 9.05 -3.71 9.22 -3.53 9.32 -3.33 9.35 -3.14 9.28 -2.94 9.15 -2.73 8.96 -2.53 8.67 -2.32 8.31 -2.11 7.89 -1.9 7.36 -1.67 6.79 -1.46 6.13 -1.24 5.39 -11.58 -2.6 1.26 -5.49 1.48 -6.23 1.71 -6.89 1.92 -7.48 2.13 -7.99 2.36 -8.45 2.57 -8.81 2.79 -9.1 2.98 -9.33 3.2 -9.46 3.41 -9.55 3.61 -9.54 3.81 -9.46 4.02 -9.33 4.23 -9.1 4.42 -8.82 4.63 -8.46 4.86 -8.02 5.07 -7.53 5.3 -6.94 5.54 -6.31 5.82 -5.58 6.11 -4.78 6.44 -3.86 6.79 -2.84 7.11 -1.65 7.36 -0.34 7.5 1.09 7.53 2.52 7.52 3.99 7.5 5.45 7.49 6.93 0 0zm0 0c2.28,2.34 2.23,6.11 -0.11,8.39 -2.34,2.28 -6.11,2.23 -8.39,-0.11l8.5 -8.28zm84.81 183.72l-11.46 3.12 0 0 -1.76 -6.39 -1.8 -6.41 -1.85 -6.42 -1.9 -6.43 -1.94 -6.43 -1.99 -6.43 -2.05 -6.4 -2.09 -6.39 -2.14 -6.36 -2.21 -6.31 -2.25 -6.28 -2.3 -6.22 -2.35 -6.16 -2.41 -6.1 -2.46 -6.02 -2.51 -5.94 -2.58 -5.85 -2.62 -5.76 -2.68 -5.64 -2.74 -5.55 -2.79 -5.42 -2.85 -5.3 -2.91 -5.16 -2.96 -5.02 -3.02 -4.86 -3.08 -4.71 -3.14 -4.56 -3.18 -4.38 -3.25 -4.21 -3.29 -4.01 -3.35 -3.82 -3.41 -3.63 8.5 -8.28 3.69 3.93 3.63 4.12 3.53 4.31 3.45 4.47 3.38 4.64 3.3 4.8 3.24 4.95 3.16 5.1 3.08 5.24 3.03 5.36 2.95 5.5 2.89 5.6 2.82 5.71 2.76 5.82 2.7 5.9 2.64 6.01 2.57 6.08 2.52 6.16 2.45 6.22 2.41 6.28 2.34 6.34 2.29 6.38 2.23 6.43 2.18 6.46 2.13 6.47 2.07 6.5 2.03 6.51 1.96 6.51 1.92 6.51 1.87 6.5 1.82 6.47 1.78 6.45 0 0zm0 0c0.86,3.16 -1.01,6.43 -4.17,7.29 -3.16,0.86 -6.43,-1.01 -7.29,-4.17l11.46 -3.12zm107.43 413.11l-11.1 4.2 0 0 -4.71 -12.68 -4.52 -12.72 -4.37 -12.75 -4.2 -12.79 -4.05 -12.82 -3.91 -12.85 -3.77 -12.88 -3.66 -12.9 -3.53 -12.92 -3.43 -12.94 -3.34 -12.97 -3.25 -12.97 -3.18 -13 -3.11 -13 -3.04 -13.02 -3.01 -13.03 -2.95 -13.02 -2.93 -13.04 -2.9 -13.04 -2.89 -13.05 -2.89 -13.03 -2.9 -13.04 -2.91 -13.03 -2.94 -13.03 -2.96 -13.01 -3.01 -13 -3.05 -13 -3.13 -12.97 -3.19 -12.97 -3.26 -12.94 -3.36 -12.92 -3.45 -12.89 11.46 -3.12 3.47 12.99 3.38 13 3.28 13.02 3.21 13.03 3.13 13.03 3.07 13.04 3.01 13.04 2.98 13.05 2.94 13.05 2.91 13.05 2.9 13.04 2.89 13.05 2.89 13.03 2.9 13.02 2.93 13.02 2.95 13 2.99 12.99 3.04 12.96 3.09 12.96 3.16 12.92 3.23 12.91 3.32 12.89 3.41 12.86 3.51 12.82 3.62 12.8 3.75 12.76 3.87 12.73 4.01 12.7 4.16 12.65 4.31 12.61 4.48 12.58 4.65 12.54 0 0zm0 0c1.15,3.06 -0.39,6.5 -3.45,7.65 -3.06,1.15 -6.5,-0.39 -7.65,-3.45l11.1 -4.2zm33.59 122.1l-44.69 -117.9 11.1 -4.2 44.69 117.9 -11.1 4.2zm11.1 -4.2c1.15,3.06 -0.39,6.5 -3.45,7.65 -3.06,1.15 -6.5,-0.39 -7.65,-3.45l11.1 -4.2zm163.8 133.45l4.7 10.9 0 0 -8.22 3.11 -8.16 2.25 -8.07 1.41 -7.96 0.6 -7.84 -0.16 -7.7 -0.89 -7.53 -1.59 -7.35 -2.23 -7.18 -2.83 -6.97 -3.38 -6.79 -3.89 -6.6 -4.35 -6.41 -4.78 -6.21 -5.17 -6.01 -5.52 -5.82 -5.83 -5.63 -6.11 -5.43 -6.35 -5.22 -6.56 -5.02 -6.72 -4.83 -6.86 -4.62 -6.96 -4.4 -7.03 -4.2 -7.04 -3.97 -7.05 -3.76 -7.01 -3.53 -6.93 -3.31 -6.81 -3.07 -6.68 -2.84 -6.48 -2.61 -6.28 -2.35 -6.04 11.1 -4.2 2.27 5.8 2.51 6.06 2.74 6.28 2.99 6.46 3.19 6.61 3.43 6.71 3.64 6.79 3.85 6.81 4.04 6.82 4.26 6.77 4.44 6.7 4.63 6.58 4.82 6.44 4.98 6.26 5.15 6.03 5.31 5.77 5.48 5.49 5.61 5.14 5.75 4.79 5.87 4.38 6 3.97 6.11 3.49 6.21 3.02 6.3 2.47 6.41 1.95 6.49 1.37 6.58 0.77 6.7 0.14 6.82 -0.52 6.93 -1.21 7.08 -1.95 7.22 -2.73 0 0zm0 0c3,-1.29 6.51,0.1 7.8,3.1 1.29,3 -0.1,6.51 -3.1,7.8l-4.7 -10.9zm83.76 -73.95l9.58 7.02 0 0 -2.1 2.82 -2.15 2.84 -2.21 2.86 -2.28 2.85 -2.32 2.85 -2.37 2.85 -2.43 2.85 -2.47 2.83 -2.52 2.81 -2.57 2.81 -2.61 2.78 -2.67 2.76 -2.69 2.72 -2.74 2.7 -2.78 2.65 -2.8 2.61 -2.86 2.59 -2.89 2.52 -2.91 2.47 -2.95 2.41 -2.97 2.36 -3.01 2.3 -3.03 2.23 -3.06 2.16 -3.1 2.08 -3.1 1.99 -3.13 1.92 -3.15 1.84 -3.17 1.74 -3.18 1.65 -3.21 1.55 -3.22 1.44 -4.7 -10.9 2.9 -1.3 2.91 -1.41 2.92 -1.51 2.91 -1.6 2.91 -1.68 2.89 -1.78 2.9 -1.87 2.88 -1.94 2.86 -2.02 2.85 -2.09 2.83 -2.16 2.83 -2.24 2.79 -2.29 2.77 -2.35 2.75 -2.4 2.7 -2.45 2.7 -2.51 2.66 -2.53 2.62 -2.58 2.59 -2.62 2.55 -2.64 2.51 -2.68 2.47 -2.69 2.42 -2.71 2.39 -2.73 2.33 -2.73 2.29 -2.75 2.24 -2.75 2.18 -2.75 2.13 -2.74 2.07 -2.74 2.02 -2.72 0 0zm0 0c1.93,-2.64 5.66,-3.21 8.3,-1.28 2.64,1.93 3.21,5.66 1.28,8.3l-9.58 -7.02zm141.52 -239.24l10.44 5.64 0 0 -4.22 7.83 -4.19 7.8 -4.16 7.76 -4.15 7.74 -4.12 7.7 -4.11 7.67 -4.1 7.65 -4.11 7.63 -4.1 7.59 -4.1 7.57 -4.12 7.56 -4.13 7.52 -4.15 7.52 -4.18 7.5 -4.2 7.48 -4.24 7.46 -4.28 7.46 -4.31 7.44 -4.36 7.43 -4.42 7.42 -4.47 7.42 -4.53 7.4 -4.6 7.42 -4.66 7.39 -4.74 7.41 -4.82 7.4 -4.91 7.4 -4.98 7.4 -5.08 7.41 -5.18 7.41 -5.28 7.42 -5.39 7.43 -9.58 -7.02 5.33 -7.33 5.22 -7.34 5.12 -7.33 5.02 -7.33 4.94 -7.32 4.85 -7.32 4.76 -7.32 4.7 -7.33 4.62 -7.33 4.56 -7.34 4.49 -7.34 4.43 -7.36 4.38 -7.36 4.32 -7.37 4.29 -7.4 4.26 -7.4 4.2 -7.42 4.18 -7.44 4.16 -7.46 4.13 -7.48 4.11 -7.5 4.1 -7.52 4.1 -7.57 4.1 -7.57 4.09 -7.61 4.1 -7.63 4.11 -7.67 4.12 -7.7 4.15 -7.74 4.16 -7.78 4.19 -7.8 4.24 -7.85 0 0zm0 0c1.55,-2.88 5.16,-3.95 8.04,-2.4 2.88,1.55 3.95,5.16 2.4,8.04l-10.44 -5.64zm120.28 -278.88l11.24 3.82 0 0 -0.83 2.29 -1.3 3.32 -1.74 4.4 -2.19 5.41 -2.6 6.34 -2.96 7.22 -3.32 8.02 -3.63 8.75 -3.92 9.4 -4.18 9.97 -4.39 10.48 -4.59 10.92 -4.75 11.25 -4.9 11.55 -4.99 11.75 -5.05 11.88 -5.1 11.95 -5.12 11.91 -5.09 11.84 -5.03 11.67 -4.97 11.43 -4.84 11.12 -4.7 10.72 -4.52 10.27 -4.32 9.74 -4.09 9.12 -3.82 8.44 -3.52 7.69 -3.21 6.86 -2.85 5.98 -2.48 5.02 -2.09 4.01 -10.44 -5.64 1.93 -3.73 2.4 -4.84 2.79 -5.86 3.17 -6.78 3.5 -7.63 3.8 -8.4 4.07 -9.08 4.3 -9.7 4.52 -10.25 4.68 -10.7 4.84 -11.1 4.95 -11.41 5.03 -11.65 5.09 -11.82 5.1 -11.91 5.1 -11.93 5.05 -11.86 4.99 -11.75 4.88 -11.53 4.75 -11.25 4.59 -10.9 4.39 -10.46 4.16 -9.97 3.92 -9.38 3.63 -8.73 3.3 -8 2.96 -7.2 2.58 -6.32 2.17 -5.35 1.72 -4.32 1.24 -3.2 0.69 -1.89 0 0zm0 0c1.05,-3.1 4.43,-4.76 7.53,-3.71 3.1,1.05 4.76,4.43 3.71,7.53l-11.24 -3.82zm109.05 -283.56l11.16 4.04 0 0 -1.4 3.84 -1.84 4.92 -2.25 5.94 -2.61 6.87 -2.96 7.75 -3.26 8.53 -3.55 9.24 -3.8 9.87 -8.23 21.36 -8.87 22.96 -9.28 23.96 -9.43 24.34 -9.33 24.1 -8.99 23.23 -8.41 21.76 -7.6 19.65 -3.41 8.84 -3.11 8.09 -2.79 7.26 -2.42 6.33 -2.03 5.35 -1.61 4.28 -1.16 3.09 -0.64 1.8 -11.24 -3.82 0.74 -2.06 1.18 -3.19 1.63 -4.3 2.03 -5.37 2.44 -6.37 2.79 -7.26 3.11 -8.09 3.41 -8.86 7.6 -19.65 8.41 -21.76 9.01 -23.23 9.33 -24.1 9.43 -24.34 9.26 -23.96 8.87 -22.96 8.23 -21.34 3.8 -9.87 3.55 -9.24 3.26 -8.51 2.94 -7.73 2.61 -6.85 2.23 -5.92 1.82 -4.86 1.38 -3.76 0 0zm0 0c1.11,-3.08 4.52,-4.67 7.6,-3.56 3.08,1.11 4.67,4.52 3.56,7.6l-11.16 -4.04zm44.28 -113.83l1 11.82 4.54 -2.78 -1.83 3.05 -1.78 3.17 -1.73 3.27 -1.68 3.35 -1.63 3.45 -1.58 3.53 -1.53 3.6 -1.48 3.66 -1.44 3.7 -1.39 3.75 -1.36 3.78 -1.31 3.8 -1.27 3.81 -1.22 3.81 -1.2 3.8 -1.16 3.8 -1.12 3.77 -1.09 3.74 -1.05 3.69 -1.03 3.63 -1.98 7.11 -1.88 6.78 -0.92 3.26 -0.88 3.16 -0.88 3.04 -0.86 2.93 -0.86 2.81 -0.84 2.66 -0.84 2.54 -0.84 2.39 -11.16 -4.04 0.76 -2.17 0.78 -2.36 0.8 -2.54 0.82 -2.69 0.84 -2.85 0.86 -2.98 0.88 -3.1 0.9 -3.24 1.88 -6.78 1.98 -7.13 1.05 -3.69 1.07 -3.73 1.11 -3.8 1.14 -3.83 1.18 -3.88 1.22 -3.9 1.26 -3.91 1.31 -3.93 1.35 -3.92 1.4 -3.92 1.45 -3.89 1.5 -3.86 1.56 -3.84 1.61 -3.78 1.68 -3.75 1.73 -3.67 1.8 -3.61 1.87 -3.53 1.94 -3.43 2.01 -3.35 4.54 -2.78zm-4.54 2.78c1.72,-2.78 5.39,-3.63 8.17,-1.91 2.78,1.72 3.63,5.39 1.91,8.17l-10.08 -6.26zm231.69 -8.19l0.3 11.86 0 0 -7.91 0.19 -7.93 0.16 -7.95 0.16 -7.96 0.14 -7.96 0.12 -7.95 0.12 -7.94 0.1 -7.91 0.1 -15.73 0.19 -15.55 0.17 -15.31 0.17 -15 0.19 -7.36 0.1 -7.28 0.11 -7.15 0.12 -7.04 0.14 -6.92 0.14 -6.78 0.17 -6.65 0.18 -6.5 0.19 -6.34 0.22 -6.18 0.24 -6.01 0.26 -5.82 0.29 -5.65 0.31 -5.44 0.33 -5.23 0.37 -5.02 0.39 -1 -11.82 5.14 -0.41 5.33 -0.37 5.54 -0.35 5.71 -0.31 5.9 -0.29 6.07 -0.26 6.22 -0.24 6.4 -0.22 6.54 -0.19 6.69 -0.18 6.82 -0.17 6.94 -0.14 7.06 -0.14 7.19 -0.12 7.28 -0.11 7.38 -0.1 15.02 -0.19 15.31 -0.17 15.55 -0.17 15.73 -0.19 7.91 -0.1 7.92 -0.1 7.93 -0.12 7.94 -0.12 7.94 -0.14 7.93 -0.16 7.91 -0.16 7.87 -0.19 0 0zm0 0c3.27,-0.08 6,2.51 6.08,5.78 0.08,3.27 -2.51,6 -5.78,6.08l-0.3 -11.86zm88.26 9.71l-87.96 2.15 -0.3 -11.86 87.96 -2.15 0.3 11.86zm-0.3 -11.86c3.27,-0.08 6,2.51 6.08,5.78 0.08,3.27 -2.51,6 -5.78,6.08l-0.3 -11.86zm105.14 -0.43l3.08 -11.46 -0.16 11.5 -1.76 0.39 -2.04 0.41 -2.31 0.4 -2.57 0.43 -2.83 0.44 -3.06 0.45 -3.27 0.47 -3.46 0.47 -3.64 0.48 -3.79 0.5 -3.92 0.49 -4.03 0.49 -4.12 0.5 -4.2 0.49 -4.23 0.49 -4.27 0.47 -4.25 0.47 -4.26 0.46 -4.2 0.44 -4.16 0.44 -4.07 0.4 -3.95 0.39 -3.84 0.37 -3.69 0.34 -3.53 0.31 -3.34 0.29 -3.11 0.25 -2.91 0.22 -2.64 0.18 -2.39 0.16 -2.12 0.1 -1.81 0.06 -0.3 -11.86 1.61 -0.06 1.94 -0.1 2.27 -0.14 2.58 -0.18 2.83 -0.22 3.07 -0.25 3.3 -0.27 3.47 -0.31 3.65 -0.34 3.8 -0.37 3.95 -0.39 4.03 -0.4 4.12 -0.42 4.18 -0.44 4.22 -0.46 4.25 -0.47 4.23 -0.47 4.21 -0.49 4.16 -0.47 4.08 -0.5 4.01 -0.49 3.88 -0.49 3.75 -0.48 3.6 -0.48 3.4 -0.47 3.21 -0.45 2.98 -0.45 2.73 -0.42 2.45 -0.41 2.13 -0.38 1.8 -0.35 1.42 -0.31 -0.16 11.5zm0.16 -11.5c3.18,-0.76 6.39,1.21 7.15,4.39 0.76,3.18 -1.21,6.39 -4.39,7.15l-2.76 -11.54zm-198.49 -17.07l1.98 -11.7 0 0 3.36 0.55 3.9 0.58 4.39 0.62 4.85 0.67 5.27 0.71 5.66 0.72 6.01 0.77 6.31 0.8 13.47 1.67 14.33 1.77 7.4 0.92 7.51 0.93 7.59 0.95 7.65 0.96 7.65 0.98 7.64 0.99 7.59 1.01 7.49 1.01 7.37 1.01 7.22 1.02 7.05 1.03 6.82 1.02 6.57 1.03 6.28 1.03 5.97 1.01 5.63 1.02 5.24 1.01 4.85 1.01 4.41 1.01 3.96 1 -3.08 11.46 -3.64 -0.92 -4.17 -0.95 -4.65 -0.97 -5.1 -0.97 -5.51 -1 -5.87 -1.01 -6.2 -1.01 -6.49 -1.01 -6.76 -1.02 -6.99 -1.01 -7.18 -1.02 -7.33 -1.01 -7.47 -1.01 -7.55 -0.99 -7.62 -0.99 -7.63 -0.98 -7.63 -0.96 -7.57 -0.95 -7.51 -0.93 -7.4 -0.92 -14.33 -1.77 -13.47 -1.67 -6.35 -0.8 -6.03 -0.77 -5.68 -0.74 -5.33 -0.71 -4.89 -0.67 -4.47 -0.64 -4 -0.6 -3.52 -0.57 0 0zm0 0c-3.23,-0.54 -5.4,-3.61 -4.86,-6.84 0.54,-3.23 3.61,-5.4 6.84,-4.86l-1.98 11.7zm-386.94 -56.7l2.04 -11.7 0 0 12.11 2.08 12.11 2.02 12.09 1.97 12.09 1.92 12.09 1.87 12.07 1.83 12.07 1.8 12.07 1.76 12.07 1.72 12.06 1.71 12.04 1.68 12.06 1.66 12.06 1.64 12.05 1.63 12.06 1.62 12.06 1.62 12.06 1.62 12.06 1.61 12.06 1.63 12.08 1.63 12.07 1.64 12.09 1.66 12.08 1.69 12.11 1.7 12.1 1.75 12.11 1.76 12.13 1.8 12.13 1.84 12.15 1.89 12.16 1.93 12.18 1.98 12.18 2.04 -1.98 11.7 -12.14 -2.02 -12.12 -1.98 -12.12 -1.93 -12.11 -1.87 -12.09 -1.84 -12.09 -1.8 -12.09 -1.76 -12.08 -1.73 -12.07 -1.7 -12.08 -1.69 -12.05 -1.66 -12.07 -1.64 -12.06 -1.63 -12.06 -1.63 -12.06 -1.61 -12.06 -1.62 -12.06 -1.62 -12.06 -1.62 -12.07 -1.63 -12.06 -1.64 -12.08 -1.66 -12.08 -1.68 -12.08 -1.71 -12.09 -1.74 -12.09 -1.76 -12.11 -1.8 -12.11 -1.83 -12.13 -1.89 -12.13 -1.92 -12.15 -1.97 -12.15 -2.04 -12.17 -2.08 0 0zm0 0c-3.23,-0.56 -5.39,-3.64 -4.83,-6.87 0.56,-3.23 3.64,-5.39 6.87,-4.83l-2.04 11.7zm-224.53 -52.11l3.46 -11.36 0 0 6.14 1.85 6.29 1.85 6.42 1.85 6.54 1.84 6.66 1.85 6.77 1.84 6.85 1.83 6.95 1.83 7.03 1.81 7.1 1.81 7.16 1.79 7.22 1.77 7.26 1.76 7.29 1.74 7.31 1.72 7.35 1.7 7.35 1.67 7.35 1.66 7.34 1.62 7.32 1.6 7.31 1.56 7.27 1.54 7.22 1.51 7.17 1.46 7.11 1.43 7.04 1.4 6.97 1.35 6.88 1.32 6.77 1.27 6.68 1.23 6.56 1.18 6.45 1.13 -2.04 11.7 -6.49 -1.15 -6.6 -1.18 -6.72 -1.23 -6.83 -1.29 -6.92 -1.32 -6.99 -1.37 -7.08 -1.4 -7.15 -1.43 -7.21 -1.48 -7.26 -1.51 -7.31 -1.54 -7.33 -1.58 -7.36 -1.6 -7.38 -1.64 -7.39 -1.66 -7.39 -1.69 -7.37 -1.7 -7.37 -1.72 -7.33 -1.76 -7.3 -1.76 -7.26 -1.79 -7.2 -1.81 -7.14 -1.81 -7.07 -1.83 -7.01 -1.83 -6.91 -1.85 -6.81 -1.86 -6.72 -1.85 -6.6 -1.86 -6.48 -1.87 -6.35 -1.87 -6.22 -1.87 0 0zm0 0c-3.13,-0.95 -4.9,-4.28 -3.95,-7.41 0.95,-3.13 4.28,-4.9 7.41,-3.95l-3.46 11.36zm-413.82 -138.21l417.28 126.85 -3.46 11.36 -417.28 -126.85 0 0 3.46 -11.36zm-3.46 11.36c-3.13,-0.95 -4.9,-4.28 -3.95,-7.41 0.95,-3.13 4.28,-4.9 7.41,-3.95l-3.46 11.36zm-392.21 -152.72l4.8 -10.86 0 0 12.01 5.3 12.03 5.29 12.03 5.27 12.04 5.26 12.05 5.25 12.05 5.21 12.07 5.2 12.08 5.17 12.09 5.15 12.09 5.1 12.12 5.08 12.12 5.05 12.14 5.01 12.15 4.96 12.16 4.92 12.18 4.89 12.2 4.83 12.21 4.79 12.23 4.73 12.25 4.68 12.27 4.62 12.28 4.56 12.31 4.51 12.33 4.44 12.34 4.37 12.37 4.31 12.38 4.24 12.42 4.16 12.44 4.09 12.46 4.01 12.48 3.93 12.52 3.85 -3.46 11.36 -12.58 -3.87 -12.56 -3.95 -12.54 -4.05 -12.5 -4.11 -12.48 -4.18 -12.46 -4.26 -12.43 -4.33 -12.4 -4.39 -12.39 -4.46 -12.35 -4.53 -12.34 -4.58 -12.33 -4.64 -12.29 -4.7 -12.27 -4.75 -12.27 -4.81 -12.24 -4.85 -12.22 -4.89 -12.2 -4.94 -12.19 -4.98 -12.16 -5.03 -12.16 -5.05 -12.14 -5.1 -12.13 -5.12 -12.11 -5.15 -12.1 -5.19 -12.09 -5.2 -12.07 -5.23 -12.07 -5.25 -12.06 -5.26 -12.05 -5.29 -12.03 -5.29 -12.03 -5.3 0 0zm0 0c-2.99,-1.32 -4.35,-4.84 -3.03,-7.83 1.32,-2.99 4.84,-4.35 7.83,-3.03l-4.8 10.86zm-364.46 -177.49l5.74 -10.4 0 0 11.06 6.08 11.08 6.03 11.11 5.99 11.13 5.94 11.16 5.91 11.18 5.87 11.21 5.83 11.22 5.79 11.25 5.75 11.27 5.71 11.3 5.68 11.3 5.66 11.34 5.61 11.34 5.57 11.37 5.55 11.38 5.51 11.4 5.49 11.41 5.45 11.43 5.42 11.44 5.4 11.46 5.36 11.47 5.35 11.48 5.31 11.48 5.29 11.52 5.26 11.5 5.25 11.53 5.21 11.53 5.2 11.54 5.17 11.54 5.16 11.55 5.12 11.57 5.12 -4.8 10.86 -11.57 -5.12 -11.57 -5.14 -11.56 -5.16 -11.56 -5.19 -11.55 -5.2 -11.55 -5.23 -11.54 -5.25 -11.52 -5.28 -11.52 -5.29 -11.5 -5.33 -11.49 -5.35 -11.48 -5.38 -11.48 -5.4 -11.45 -5.44 -11.45 -5.47 -11.42 -5.49 -11.42 -5.53 -11.39 -5.57 -11.38 -5.59 -11.36 -5.63 -11.34 -5.66 -11.32 -5.7 -11.31 -5.73 -11.29 -5.77 -11.26 -5.81 -11.25 -5.85 -11.22 -5.89 -11.2 -5.93 -11.17 -5.96 -11.15 -6.01 -11.12 -6.05 -11.1 -6.1 0 0zm0 0c-2.87,-1.58 -3.91,-5.2 -2.33,-8.07 1.58,-2.87 5.2,-3.91 8.07,-2.33l-5.74 10.4zm-287.2 -178.06l7.24 -9.42 0 0 8.4 6.4 8.44 6.32 8.49 6.23 8.54 6.15 8.57 6.07 8.62 6.01 8.66 5.93 8.69 5.87 8.74 5.8 8.77 5.74 8.8 5.68 8.85 5.63 8.87 5.58 8.9 5.52 8.94 5.47 8.96 5.44 9 5.38 9.02 5.36 9.05 5.32 9.07 5.28 9.09 5.26 9.12 5.22 9.14 5.21 9.16 5.18 9.17 5.16 9.19 5.15 9.22 5.13 9.22 5.13 9.24 5.13 9.25 5.1 9.27 5.12 9.27 5.12 -5.74 10.4 -9.27 -5.12 -9.27 -5.12 -9.25 -5.12 -9.26 -5.13 -9.24 -5.13 -9.22 -5.15 -9.21 -5.15 -9.21 -5.18 -9.18 -5.2 -9.16 -5.23 -9.16 -5.24 -9.13 -5.28 -9.11 -5.3 -9.09 -5.34 -9.06 -5.38 -9.04 -5.42 -9.02 -5.46 -8.98 -5.51 -8.96 -5.56 -8.93 -5.6 -8.91 -5.67 -8.86 -5.72 -8.85 -5.78 -8.8 -5.86 -8.77 -5.91 -8.72 -5.99 -8.7 -6.05 -8.65 -6.13 -8.62 -6.21 -8.57 -6.29 -8.54 -6.38 -8.48 -6.46 0 0zm0 0c-2.6,-1.99 -3.08,-5.73 -1.09,-8.33 1.99,-2.6 5.73,-3.08 8.33,-1.09l-7.24 9.42zm-124.52 -110.72l131.76 101.3 -7.24 9.42 -131.76 -101.3 0 0 7.24 -9.42zm-7.24 9.42c-2.6,-1.99 -3.08,-5.73 -1.09,-8.33 1.99,-2.6 5.73,-3.08 8.33,-1.09l-7.24 9.42zm-174.47 -174.47l8.98 -7.76 0 0 5.14 5.93 5.14 5.92 5.11 5.88 5.12 5.85 5.1 5.82 5.11 5.79 5.1 5.77 5.1 5.72 5.12 5.69 5.13 5.67 5.13 5.62 5.16 5.59 5.17 5.55 5.2 5.52 5.22 5.48 5.25 5.45 5.28 5.41 5.32 5.37 5.35 5.33 5.4 5.28 5.43 5.25 5.5 5.22 5.53 5.16 5.59 5.13 5.65 5.08 5.71 5.04 5.77 4.99 5.84 4.96 5.9 4.91 5.98 4.85 6.06 4.83 6.13 4.76 -7.24 9.42 -6.23 -4.86 -6.16 -4.89 -6.08 -4.95 -6 -4.99 -5.92 -5.02 -5.87 -5.07 -5.79 -5.12 -5.73 -5.16 -5.67 -5.19 -5.61 -5.24 -5.56 -5.28 -5.51 -5.31 -5.46 -5.36 -5.41 -5.39 -5.38 -5.43 -5.34 -5.47 -5.31 -5.49 -5.26 -5.54 -5.24 -5.56 -5.21 -5.61 -5.2 -5.63 -5.17 -5.66 -5.17 -5.69 -5.14 -5.73 -5.14 -5.76 -5.12 -5.79 -5.13 -5.81 -5.12 -5.84 -5.12 -5.87 -5.13 -5.9 -5.14 -5.92 -5.16 -5.95 0 0zm0 0c-2.14,-2.47 -1.86,-6.23 0.61,-8.37 2.47,-2.14 6.23,-1.86 8.37,0.61l-8.98 7.76zm-101.44 -169.83l10.9 -4.72 0 0 2.44 5.64 2.43 5.57 2.41 5.48 2.4 5.43 2.39 5.34 2.4 5.3 2.41 5.23 2.42 5.19 2.45 5.14 2.47 5.1 2.52 5.07 2.55 5.05 2.6 5.01 2.66 5 2.72 4.99 2.78 4.98 2.87 4.98 2.94 4.99 3.04 4.98 3.13 5.02 3.23 5.03 3.34 5.06 3.46 5.09 3.58 5.13 3.71 5.16 3.85 5.21 3.99 5.28 4.14 5.33 4.3 5.4 4.46 5.46 4.63 5.54 4.81 5.62 -8.98 7.76 -4.89 -5.72 -4.73 -5.64 -4.54 -5.58 -4.38 -5.5 -4.24 -5.45 -4.07 -5.38 -3.95 -5.33 -3.79 -5.3 -3.68 -5.25 -3.54 -5.23 -3.42 -5.18 -3.31 -5.15 -3.21 -5.14 -3.12 -5.12 -3.02 -5.11 -2.93 -5.1 -2.86 -5.1 -2.78 -5.11 -2.72 -5.1 -2.64 -5.13 -2.61 -5.13 -2.56 -5.17 -2.51 -5.18 -2.49 -5.22 -2.46 -5.25 -2.43 -5.31 -2.42 -5.34 -2.41 -5.4 -2.42 -5.45 -2.43 -5.52 -2.43 -5.59 -2.46 -5.66 0 0zm0 0c-1.3,-3 0.09,-6.51 3.09,-7.81 3,-1.3 6.51,0.09 7.81,3.09l-10.9 4.72zm-14.99 -163.68l11.62 2.46 0 0 -1.54 7.59 -1.34 7.34 -1.15 7.1 -0.98 6.87 -0.8 6.63 -0.64 6.42 -0.48 6.2 -0.32 6 -0.19 5.8 -0.03 5.59 0.09 5.43 0.22 5.24 0.34 5.07 0.45 4.92 0.56 4.77 0.65 4.62 0.76 4.48 0.84 4.35 0.93 4.25 1 4.13 1.08 4.02 1.13 3.92 1.2 3.85 1.25 3.76 1.29 3.69 1.34 3.62 1.38 3.57 1.41 3.52 1.43 3.49 1.45 3.44 1.46 3.43 1.48 3.4 -10.9 4.72 -1.48 -3.44 -1.48 -3.47 -1.49 -3.52 -1.47 -3.59 -1.45 -3.64 -1.44 -3.71 -1.4 -3.8 -1.37 -3.87 -1.31 -3.98 -1.26 -4.05 -1.21 -4.16 -1.14 -4.28 -1.06 -4.39 -0.99 -4.51 -0.9 -4.63 -0.8 -4.78 -0.71 -4.92 -0.58 -5.05 -0.49 -5.22 -0.36 -5.37 -0.22 -5.54 -0.11 -5.71 0.05 -5.89 0.19 -6.08 0.34 -6.26 0.5 -6.46 0.66 -6.68 0.84 -6.89 1 -7.09 1.19 -7.34 1.38 -7.56 1.58 -7.81 0 0zm0 0c0.67,-3.2 3.84,-5.25 7.04,-4.58 3.2,0.67 5.25,3.84 4.58,7.04l-11.62 -2.46zm28.71 -76.39l10.3 5.92 0 0 -1.59 2.77 -1.51 2.65 -1.43 2.52 -1.34 2.4 -1.27 2.29 -1.19 2.2 -1.13 2.12 -1.06 2.04 -1 1.97 -0.95 1.91 -0.89 1.88 -0.85 1.83 -0.79 1.8 -0.77 1.81 -0.74 1.78 -0.68 1.79 -0.67 1.82 -0.65 1.88 -0.63 1.89 -0.62 1.95 -0.6 2.03 -0.61 2.1 -0.6 2.18 -0.59 2.29 -0.61 2.41 -0.61 2.51 -0.62 2.64 -0.63 2.77 -0.65 2.94 -0.68 3.09 -0.71 3.26 -0.72 3.42 -11.62 -2.46 0.74 -3.46 0.71 -3.28 0.68 -3.13 0.67 -2.98 0.65 -2.85 0.64 -2.72 0.63 -2.61 0.63 -2.49 0.63 -2.41 0.64 -2.32 0.63 -2.24 0.66 -2.17 0.66 -2.13 0.69 -2.07 0.71 -2.02 0.73 -2.02 0.78 -1.99 0.8 -1.98 0.83 -1.95 0.87 -1.98 0.93 -1.99 0.95 -2 1.01 -2.05 1.06 -2.09 1.12 -2.14 1.17 -2.2 1.25 -2.28 1.29 -2.35 1.38 -2.46 1.45 -2.56 1.51 -2.67 1.61 -2.81 0 0zm0 0c1.63,-2.84 5.27,-3.82 8.11,-2.19 2.84,1.63 3.82,5.27 2.19,8.11l-10.3 -5.92zm152.91 -138.38l4.82 10.84 0 0 -6.45 2.93 -6.3 2.98 -6.13 3.03 -5.97 3.07 -5.81 3.13 -5.66 3.19 -5.52 3.24 -5.39 3.31 -5.25 3.37 -5.11 3.45 -4.99 3.52 -4.88 3.6 -4.75 3.68 -4.66 3.78 -4.55 3.86 -4.45 3.95 -4.34 4.06 -4.27 4.15 -4.18 4.26 -4.1 4.37 -4.02 4.49 -3.95 4.6 -3.89 4.73 -3.84 4.85 -3.76 4.99 -3.73 5.11 -3.66 5.26 -3.64 5.4 -3.59 5.55 -3.56 5.7 -3.54 5.85 -3.5 6.01 -10.3 -5.92 3.6 -6.15 3.62 -6.01 3.66 -5.86 3.71 -5.71 3.74 -5.56 3.8 -5.44 3.85 -5.31 3.92 -5.17 3.98 -5.03 4.03 -4.93 4.13 -4.8 4.2 -4.67 4.28 -4.57 4.36 -4.44 4.45 -4.35 4.56 -4.24 4.65 -4.13 4.75 -4.04 4.86 -3.94 4.97 -3.84 5.08 -3.76 5.21 -3.68 5.33 -3.59 5.45 -3.51 5.59 -3.43 5.72 -3.36 5.86 -3.29 6.01 -3.23 6.15 -3.17 6.31 -3.11 6.46 -3.06 6.63 -3.01 0 0zm0 0c2.99,-1.33 6.5,0.02 7.83,3.01 1.33,2.99 -0.02,6.5 -3.01,7.83l-4.82 -10.84z"/>
    </g>
    <path class="fil4" d="M9366.65 196.69c6.99,4.17 9.16,2.22 17.6,3.53l49.3 13.9c85.83,28.41 81.16,75.75 101.9,153.59 5.99,-1.87 1.52,1.39 4.49,-4.6 3.94,-7.95 9.28,-77.7 43.86,-115.81 12.03,-13.26 32.78,-26.4 52.3,-31.85l63.48 -17.16c0.62,-0.21 1.44,-0.59 1.94,-0.77 0.51,-0.19 1.33,-0.47 1.94,-0.83 -4.28,-7.98 -12.7,-6.06 -31.24,-11.21 -12.66,-3.52 -23.77,-5.56 -34.19,-9.41 -95.36,-35.34 -79.94,-103.88 -99.83,-153.4l-2.12 3.35c-0.19,0.42 -0.67,1.19 -0.88,1.73 -10.04,24.77 -9.66,104.53 -70.89,136.28 -32.9,17.06 -89.38,26.11 -97.64,32.66zm-312.65 -68.56c3.23,9.28 12.43,5.92 22.48,9.05 38,11.84 76.86,17.9 92.83,73.27 2.37,8.22 5.08,17.96 7.03,25.32 1.38,5.2 1.15,8.33 2.31,13.35 2.68,11.6 5.55,10.33 7.33,11.95 7.6,-29.81 9.88,-66.65 35.77,-92.45 22.79,-22.71 48.21,-24.08 65.17,-30.43 11.35,-4.27 18.43,0.28 24.72,-7.78 -7,-8.8 -3.04,-0.61 -24.5,-7.77 -17.45,-5.83 -45.3,-8.92 -65.5,-30.32 -19.87,-21.03 -29.83,-56.2 -35.76,-92.33 -1.3,1.45 -1.65,1.35 -3.31,3.79 -8.45,12.42 -7.63,59.63 -36.28,87.16 -34.87,33.53 -79.46,30.88 -92.29,37.19zm91.46 912.34c39.17,38.67 31.08,78.5 42.14,96.43 2.01,3.26 4.12,3.88 0.51,1.26 11.3,-7.15 4.7,-78.73 55.59,-105.5 10.97,-8.22 21.66,-10.81 36.68,-14.49 26.31,-6.43 36.54,-6.49 42.54,-14.56 -22.43,-0.04 -74.07,-15.85 -94.92,-35.68 -9.38,-8.91 -19.98,-26.82 -23.84,-39.6 -1.16,-3.89 -2.23,-8.6 -3.92,-12.63 -8.48,-20.3 -3.22,-24.84 -9.84,-39.23 -5.17,2.91 -2.17,-0.12 -5.63,4.99 -4.47,6.59 -8.08,62.95 -38.68,88.88 -6.53,5.53 -11.71,10.32 -20.43,13.85 -29.69,12.05 -69.5,17.44 -75.56,23.7 5.81,1.64 20.66,4.03 27.03,4.97 14.57,2.18 12.89,3.8 26.11,6.84 21.85,5.02 31.91,15.35 42.24,20.76zm-314.43 -442.78c-35.79,77.24 -50.06,77.72 -122.23,101.97 -10.17,3.42 -51.56,10.17 -59.45,13.92 7.28,4.66 77.15,17.74 97.71,26.96l40.73 23.34c0.53,0.41 3.24,2.79 3.7,3.24 47.61,46.38 45.94,115.17 58.42,145.35 6.79,-3.52 1.31,2.89 5.64,-6.59 0.75,-1.63 1.6,-5.36 2.02,-7.79 5.26,-29.71 4.82,-31.87 15.48,-63.6 1.94,-5.78 2.26,-9.69 4.83,-15.46l13.64 -25.51c25.58,-39.99 48.01,-46.81 95.5,-63.6 8.32,-1.25 64.43,-13.27 67.84,-16.35 -23.85,-12.11 -121.71,-7.69 -167.64,-83.71 -15.94,-26.37 -26.51,-86.51 -35.3,-117.58 -1.86,2.64 -20.84,80.96 -20.89,85.4zm411.21 -62.82l-22.85 58.68c-16.06,22.05 -46.82,34.56 -74.71,38.78 -15.7,2.37 -17.48,2.52 -21.42,10.42 51.01,8.6 99.99,21.92 111.01,74.06l9.45 39.73c1.8,4.53 2.52,2.31 4.94,7.89 13.61,-28.76 1.4,-86.23 74.23,-111.02 31.43,-10.7 27.66,-5.35 49.13,-11.12 -5.13,-12.29 -67.17,-11.32 -91.31,-43.41 -18.97,-19.63 -22.43,-47.35 -28.31,-70.67 -2.99,-11.88 1.95,1.7 -1.87,-5.56 -3.06,-5.8 1.47,-0.19 -4.28,-4.81 -5.01,7.94 -4.02,5.18 -4.01,17.03z"/>
   </g>
  </g>
 </g>
</svg>
